<?xml version="1.0" encoding="utf-8"?>
<!-- Generator: Adobe Illustrator 17.0.0, SVG Export Plug-In . SVG Version: 6.00 Build 0)  -->
<!DOCTYPE svg PUBLIC "-//W3C//DTD SVG 1.1//EN" "http://www.w3.org/Graphics/SVG/1.1/DTD/svg11.dtd">
<svg version="1.1" id="图形" xmlns="http://www.w3.org/2000/svg" xmlns:xlink="http://www.w3.org/1999/xlink" x="0px" y="0px"
	 width="1024px" height="1024px" viewBox="0 0 1024 1024" enable-background="new 0 0 1024 1024" xml:space="preserve">
<g>
	<g>
		<path fill="#848484" d="M445.357,645.786V377.214c1.195-42.891-6.513-74.065-47.114-101.869
			c-36.304-24.87-83.743-32.423-122.912-32.423c-40.831,0-75.052,8.037-102.44,30.98c-36.814,30.845-62.161,79.37-63.249,103.313
			h67.136c0-15.127,21.157-41.561,32.88-48.336c14.912-8.621,42.219-18.095,68.479-18.095c35.525,0,55.433,3.371,65.444,9.883
			c12.213,7.95,17.974,13.14,24.588,23.211c6.634,10.085,9.944,23.037,9.944,38.856c0,18.008-3.982,31.47-11.831,40.487
			c-20.68,23.782-57.857,17.672-95.182,18.189c-18.578,0.255-49.706,4.203-78.047,11.851c-15.429,4.163-29.268,11.334-41.629,21.076
			c-12.354,9.756-22.325,23.225-29.919,40.433c-7.587,17.209-11.381,39.567-11.381,67.096c0,21.801,3.136,40.863,9.434,57.206
			c6.278,16.349,14.738,29.832,25.373,40.433c10.615,10.622,22.862,18.646,36.741,24.091c13.872,5.439,43.826,9.333,62.255,9.333
			c35.571,0,111.437-21.969,134.286-67.143c0,34.874,31.886,67.143,67.143,67.143c21.902,0,31.497-0.41,31.497-0.41l-0.013-65.874
			C476.84,646.645,445.357,646.506,445.357,645.786z M378.04,573.03c0,13.22-3.753,18.411-11.246,28.576
			c-7.5,10.172-16.86,18.538-28.106,25.132c-11.246,6.593-23.218,11.273-35.901,14.013c-12.683,2.76-24.514,4.123-35.458,4.123
			c-8.641,0-18.317-0.819-28.972-2.471c-10.676-1.652-20.479-4.532-29.415-8.655c-8.943-4.123-16.591-9.749-22.916-16.9
			c-6.358-7.137-9.521-15.926-9.521-26.374c0-12.079,2.162-22.385,6.486-30.906c4.324-8.514,10.233-15.376,17.732-20.606
			c7.493-5.217,16.141-9.34,25.957-12.361c9.789-3.015,19.888-5.365,30.268-7.01c21.902-3.841,45.552-7.091,54.124-8.091
			c34.318-4.004,67.082-25.179,67.082-25.179L378.04,573.03z M713.922,242.929c-58.139,0-109.866,30.926-134.279,67.143
			c-2.196,1.289,0-268.571,0-268.571H512.5v671.429h67.143c0,0,0-45.583,0-67.143c33.86,28.663,67.338,67.143,134.279,67.143
			c111.014,0,201.402-110.49,201.435-233.039C915.384,358.616,825.312,242.929,713.922,242.929z M713.237,646.806
			c-74.139,0-134.239-75.093-134.239-167.73c0-92.63,60.1-167.723,134.239-167.723s134.239,75.093,134.239,167.723
			C847.476,571.714,787.376,646.806,713.237,646.806z"/>
	</g>
</g>
</svg>
