<?xml version="1.0" encoding="utf-8"?>
<!-- Generator: Adobe Illustrator 17.0.0, SVG Export Plug-In . SVG Version: 6.00 Build 0)  -->
<!DOCTYPE svg PUBLIC "-//W3C//DTD SVG 1.1//EN" "http://www.w3.org/Graphics/SVG/1.1/DTD/svg11.dtd">
<svg version="1.1" id="图形" xmlns="http://www.w3.org/2000/svg" xmlns:xlink="http://www.w3.org/1999/xlink" x="0px" y="0px"
	 width="1024px" height="1024px" viewBox="0 0 1024 1024" enable-background="new 0 0 1024 1024" xml:space="preserve">
<g>
	<g>
		<path fill="#848484" d="M310.595,243.71v67.14H982v-67.14H310.595z M310.595,579.412H982v-67.14H310.595V579.412z
			 M310.595,847.974H982v-67.14H310.595V847.974z M112.706,310.293h63.099V41.328h-53.84c0.477,3.579,0.477,7.204,0,10.789
			c-2.202,7.184-6.237,13.791-11.783,19.263c-7.674,7.446-17.658,12.555-28.602,14.643c-12.884,0.886-25.822,0.886-38.7,0v36.222
			h69.826V310.293z M221.205,848.827c-5.928-6.009-13.891-10.172-22.714-11.877c7.849-2.954,14.778-7.54,20.189-13.361
			c10.695-10.904,16.396-24.936,15.986-39.344c0.88-19.947-8.755-39.129-26.077-51.967c-19.618-13.549-44.111-20.404-68.994-19.303
			c-13.045-0.651-26.118,0.604-38.7,3.713c-9.95,3.075-19.101,7.869-26.923,14.106c-9.708,7.909-17.45,17.517-22.714,28.206
			c-4.559,11.985-7.11,24.486-7.573,37.122h54.686c-0.987-11.018,2.276-22.009,9.252-31.18c7.238-8.151,18.584-12.602,30.294-11.877
			c10.393-0.457,20.511,3.055,27.763,9.648c6.902,6.667,10.534,15.476,10.098,24.5c2.195,13.233-5.653,26.192-19.357,31.919
			c-12.716,3.827-26.111,5.593-39.539,5.197v37.122c14.563,0.953,28.817,4.223,42.063,9.648c15.691,5.801,23.56,17.859,23.56,34.893
			c0.806,11.031-3.787,21.848-12.622,29.69c-7.768,5.083-17.255,7.701-26.923,7.426c-16.161,1.182-31.509-6.472-38.7-19.303
			c-4.156-8.158-6.17-17.04-5.888-25.983L42,895.597c0.054,17.597,4.962,34.926,14.308,50.476
			c18.739,24.439,50.758,38.283,84.134,36.377c28.709,1.799,56.908-7.399,77.4-25.238c17-15.818,26.353-36.853,26.084-58.647
			C244.878,879.866,236.593,861.718,221.205,848.827z M243.918,600.414H115.774c3.579-5.378,8.07-10.212,13.314-14.314
			l29.958-20.344l23.298-15.066c15.892-9.373,30.186-20.793,42.433-33.906c12.77-15.127,19.511-33.711,19.142-52.739
			c1-23.197-8.99-45.682-27.46-61.783c-20.377-16.235-46.951-24.62-74.056-23.358c-34.188,0-67.261,12.32-83.207,39.935
			c-8.863,17.215-13.408,36.001-13.314,54.995h54.082c-0.047-11.078,2.209-22.069,6.66-32.395
			c7.292-13.442,23.801-17.329,39.942-17.329c11.38-0.665,22.458,3.518,29.951,11.3c6.902,7.916,10.447,17.806,9.984,27.877
			c-0.269,14.496-6.848,28.306-18.302,38.431c-16.127,13.482-33.375,25.822-51.591,36.914
			c-49.637,28.212-60.742,55.753-60.742,55.753c-8.513,16.261-13.059,33.993-13.314,51.987h201.368V600.414z"/>
	</g>
</g>
</svg>
