<?xml version="1.0" encoding="utf-8"?>
<!-- Generator: Adobe Illustrator 17.0.0, SVG Export Plug-In . SVG Version: 6.00 Build 0)  -->
<!DOCTYPE svg PUBLIC "-//W3C//DTD SVG 1.1//EN" "http://www.w3.org/Graphics/SVG/1.1/DTD/svg11.dtd">
<svg version="1.1" id="图形" xmlns="http://www.w3.org/2000/svg" xmlns:xlink="http://www.w3.org/1999/xlink" x="0px" y="0px"
	 width="1024px" height="1024px" viewBox="0 0 1024 1024" enable-background="new 0 0 1024 1024" xml:space="preserve">
<g>
	<g>
		<path fill-rule="evenodd" clip-rule="evenodd" fill="#848484" d="M804.57,545.572v-402.86c0-37.083-30.06-67.143-67.143-67.143
			H133.143c-37.09,0-67.143,30.06-67.143,67.143v738.577c0,37.083,30.053,67.143,67.143,67.143h335.71l-69.238-67.143H133.143
			V142.712h604.283v402.86H804.57z M200.287,344.142h469.997v-67.143H200.287V344.142z M200.287,478.428h469.997v-67.143H200.287
			V478.428z M603.14,545.572H200.287v67.143h335.71L603.14,545.572z M200.287,747.002h201.417v-67.143H200.287V747.002z
			 M670.283,948.432v-67.143H603.14v67.143H670.283z M603.14,881.288v-67.143h-67.143v67.143H603.14z M468.853,814.145h67.143
			v-67.143h-67.143V814.145z M535.997,747.002h67.143v-67.143h-67.143V747.002z M603.14,679.858h67.143v-67.143H603.14V679.858z
			 M804.563,948.432h67.15v-67.143h-67.15V948.432z M871.713,881.288h67.143v-67.143h-67.143V881.288z M938.857,747.002v67.143H1006
			v-67.143H938.857z M871.713,679.858v67.143h67.143v-67.143H871.713z M804.563,612.715v67.143h67.15v-67.143H804.563z"/>
	</g>
</g>
</svg>
