<?xml version="1.0" encoding="utf-8"?>
<!-- Generator: Adobe Illustrator 17.0.0, SVG Export Plug-In . SVG Version: 6.00 Build 0)  -->
<!DOCTYPE svg PUBLIC "-//W3C//DTD SVG 1.1//EN" "http://www.w3.org/Graphics/SVG/1.1/DTD/svg11.dtd">
<svg version="1.1" id="图形" xmlns="http://www.w3.org/2000/svg" xmlns:xlink="http://www.w3.org/1999/xlink" x="0px" y="0px"
	 width="1024px" height="1024px" viewBox="0 0 1024 1024" enable-background="new 0 0 1024 1024" xml:space="preserve">
<path fill="#848484" d="M512.46,914.857c148.673-0.94,267.656-78.449,267.656-230.083c0-169.722-167.735-209.094-167.735-209.094
	s101.506-34.706,101.506-165.11c0-135.486-109.704-201.427-200.876-201.427H243.884V914.85L512.46,914.857z M512.46,176.292
	c84.955,0,135.09,81.242,135.09,133.707c0,53.056-54.432,134.855-135.09,134.855c-27.414-0.927-201.507-0.269-201.507-0.269
	l0.074-268.301L512.46,176.292z M512.46,512.003c99.136,0,201.46,80.067,201.46,168.567c0,88.272-103.513,167.137-201.46,167.137
	H311.026l-0.094-335.362L512.46,512.003z"/>
</svg>
