<?xml version="1.0" encoding="utf-8"?>
<!-- Generator: Adobe Illustrator 17.0.0, SVG Export Plug-In . SVG Version: 6.00 Build 0)  -->
<!DOCTYPE svg PUBLIC "-//W3C//DTD SVG 1.1//EN" "http://www.w3.org/Graphics/SVG/1.1/DTD/svg11.dtd">
<svg version="1.1" id="图形" xmlns="http://www.w3.org/2000/svg" xmlns:xlink="http://www.w3.org/1999/xlink" x="0px" y="0px"
	 width="1024px" height="1024px" viewBox="0 0 1024 1024" enable-background="new 0 0 1024 1024" xml:space="preserve">
<g>
	<g>
		<path fill-rule="evenodd" clip-rule="evenodd" fill="#333333" d="M942.554,97.075c-52.492-52.492-137.486-52.605-189.837-0.255
			l-24.004,24.004l-94.459-94.453L364.919,295.337l47.156,47.149l222.179-221.321l47.059,47.059L89.149,760.388L42,997.629
			l237.241-47.149l663.568-663.568C995.16,234.561,995.052,149.566,942.554,97.075z M231.716,902.962L113.099,926.53l23.575-118.617
			l321.534-321.534l95.044,95.048L231.716,902.962z M895.284,239.394L600.652,534.026l-95.046-95.046l294.636-294.636
			c26.175-26.175,68.673-26.122,94.915,0.127C921.406,170.714,921.46,213.212,895.284,239.394z"/>
	</g>
</g>
</svg>
