<?xml version="1.0" encoding="utf-8"?>
<!-- Generator: Adobe Illustrator 17.0.0, SVG Export Plug-In . SVG Version: 6.00 Build 0)  -->
<!DOCTYPE svg PUBLIC "-//W3C//DTD SVG 1.1//EN" "http://www.w3.org/Graphics/SVG/1.1/DTD/svg11.dtd">
<svg version="1.1" id="图形" xmlns="http://www.w3.org/2000/svg" xmlns:xlink="http://www.w3.org/1999/xlink" x="0px" y="0px"
	 width="1024px" height="1024px" viewBox="0 0 1024 1024" enable-background="new 0 0 1024 1024" xml:space="preserve">
<path fill="none" d="M902.312,36.359c0.051,0.055,0.12,0.085,0.191,0.085c0.072,0,0.14-0.031,0.191-0.085 M902.695,36.359
	l5.133-5.517c0.226-0.242,0.212-0.646-0.013-0.888c-0.225-0.241-0.589-0.243-0.814-0.001l-4.497,4.829l-4.497-4.829
	c-0.226-0.242-0.59-0.24-0.814,0.001c-0.225,0.242-0.24,0.646-0.013,0.888l5.133,5.517 M902.309,32.078
	c0.051,0.055,0.12,0.085,0.191,0.085c0.071,0,0.14-0.03,0.191-0.085 M902.691,32.078l5.133-5.518
	c0.226-0.242,0.212-0.646-0.013-0.888c-0.224-0.241-0.588-0.243-0.814-0.001L902.5,30.5l-4.497-4.829
	c-0.226-0.242-0.59-0.24-0.814,0.001c-0.225,0.241-0.239,0.646-0.013,0.888l5.133,5.518"/>
<g>
	<g>
		<g>
			<path fill="#848484" d="M783.588,217.04L511.896,488.733L240.357,217.193c-13.142-13.142-34.421-13.161-47.529-0.052
				c-13.108,13.108-13.089,34.387,0.052,47.529l295.335,295.335c13.137,13.137,34.421,13.161,47.529,0.052l295.43-295.43
				c13.108-13.108,13.084-34.392-0.052-47.529C817.98,203.956,796.696,203.933,783.588,217.04z"/>
		</g>
	</g>
	<g>
		<g>
			<path fill="#848484" d="M783.588,463.942L511.896,735.634L240.357,464.095c-13.142-13.142-34.421-13.161-47.529-0.052
				c-13.108,13.108-13.089,34.387,0.052,47.529l295.335,295.335c13.137,13.137,34.421,13.161,47.529,0.052l295.43-295.43
				c13.108-13.108,13.084-34.392-0.052-47.529C817.98,450.858,796.696,450.834,783.588,463.942z"/>
		</g>
	</g>
</g>
</svg>
