<?xml version="1.0" encoding="utf-8"?>
<!-- Generator: Adobe Illustrator 17.0.0, SVG Export Plug-In . SVG Version: 6.00 Build 0)  -->
<!DOCTYPE svg PUBLIC "-//W3C//DTD SVG 1.1//EN" "http://www.w3.org/Graphics/SVG/1.1/DTD/svg11.dtd">
<svg version="1.1" id="图形" xmlns="http://www.w3.org/2000/svg" xmlns:xlink="http://www.w3.org/1999/xlink" x="0px" y="0px"
	 width="1024px" height="1024px" viewBox="0 0 1024 1024" enable-background="new 0 0 1024 1024" xml:space="preserve">
<g>
	<g>
		<path fill-rule="evenodd" clip-rule="evenodd" fill="#848484" d="M387.251,410.559H118.575v66.872h268.676V410.559z
			 M387.251,544.303H118.575v66.878h268.676V544.303z M857.422,145.121H118.575v64.843h738.847V145.121z M387.251,276.809H118.575
			v66.872h268.676V276.809z M989.291,915.556L796.409,621.94c37.64-36.42,61.033-87.337,61.033-143.697
			c0-110.712-90.219-200.454-201.502-200.454c-111.289,0-201.502,89.742-201.502,200.454c0,110.705,90.212,200.454,201.502,200.454
			c36.515,0,70.762-9.663,100.298-26.559l190.61,290.15c5.367,8.188,19.23,8.833,30.957,1.451
			C989.526,936.351,994.671,923.731,989.291,915.556z M655.94,611.88c-74.193,0-134.335-59.833-134.335-133.636
			c0-73.81,60.142-133.643,134.335-133.643s134.335,59.833,134.335,133.643C790.275,552.047,730.133,611.88,655.94,611.88z
			 M588.753,678.053H118.575v66.872h470.178V678.053z M118.575,878.668h738.847v-66.872H118.575V878.668z"/>
	</g>
</g>
</svg>
