<?xml version="1.0" encoding="utf-8"?>
<!-- Generator: Adobe Illustrator 17.0.0, SVG Export Plug-In . SVG Version: 6.00 Build 0)  -->
<!DOCTYPE svg PUBLIC "-//W3C//DTD SVG 1.1//EN" "http://www.w3.org/Graphics/SVG/1.1/DTD/svg11.dtd">
<svg version="1.1" id="图形" xmlns="http://www.w3.org/2000/svg" xmlns:xlink="http://www.w3.org/1999/xlink" x="0px" y="0px"
	 width="1024px" height="1024px" viewBox="0 0 1024 1024" enable-background="new 0 0 1024 1024" xml:space="preserve">
<g>
	<g>
		<path fill-rule="evenodd" clip-rule="evenodd" fill="#848484" d="M511.997,612.708c-37.077,0-67.143,30.067-67.143,67.15
			c0,37.077,30.067,67.143,67.143,67.143c37.09,0,67.15-30.067,67.15-67.143C579.147,642.775,549.087,612.708,511.997,612.708z
			 M310.58,411.278c-37.09,0-67.143,30.067-67.143,67.15c0,37.077,30.053,67.137,67.143,67.137c37.077,0,67.13-30.06,67.13-67.137
			C377.71,441.345,347.656,411.278,310.58,411.278z M847.72,209.855H713.434V109.14c0-18.545-15.033-33.572-33.572-33.572
			c-18.545,0-33.572,15.027-33.572,33.572v100.715H377.71V109.14c0-18.545-15.02-33.572-33.565-33.572S310.58,90.595,310.58,109.14
			v100.715H176.293c-37.097,0-67.15,30.06-67.15,67.143v604.291c0,37.077,30.053,67.143,67.15,67.143H847.72
			c37.083,0,67.137-30.067,67.137-67.143V276.998C914.857,239.915,884.804,209.855,847.72,209.855z M847.72,881.289H176.293V276.998
			H310.58v33.565c0,18.545,15.02,33.578,33.565,33.578s33.565-15.033,33.565-33.578v-33.565h268.58v33.565
			c0,18.545,15.027,33.578,33.572,33.578c18.538,0,33.572-15.033,33.572-33.578v-33.565H847.72V881.289z M310.58,612.708
			c-37.09,0-67.143,30.067-67.143,67.15c0,37.077,30.053,67.143,67.143,67.143c37.077,0,67.13-30.067,67.13-67.143
			C377.71,642.775,347.656,612.708,310.58,612.708z M646.29,478.428c0,37.077,30.067,67.137,67.143,67.137
			c37.083,0,67.143-30.06,67.143-67.137c0-37.083-30.06-67.15-67.143-67.15C676.357,411.278,646.29,441.345,646.29,478.428z
			 M713.434,612.708c-37.077,0-67.143,30.067-67.143,67.15c0,37.077,30.067,67.143,67.143,67.143
			c37.083,0,67.143-30.067,67.143-67.143C780.577,642.775,750.517,612.708,713.434,612.708z M511.997,411.278
			c-37.077,0-67.143,30.067-67.143,67.15c0,37.077,30.067,67.137,67.143,67.137c37.09,0,67.15-30.06,67.15-67.137
			C579.147,441.345,549.087,411.278,511.997,411.278z"/>
	</g>
</g>
</svg>
