<?xml version="1.0" encoding="utf-8"?>
<!-- Generator: Adobe Illustrator 17.0.0, SVG Export Plug-In . SVG Version: 6.00 Build 0)  -->
<!DOCTYPE svg PUBLIC "-//W3C//DTD SVG 1.1//EN" "http://www.w3.org/Graphics/SVG/1.1/DTD/svg11.dtd">
<svg version="1.1" id="图形" xmlns="http://www.w3.org/2000/svg" xmlns:xlink="http://www.w3.org/1999/xlink" x="0px" y="0px"
	 width="1024px" height="1024px" viewBox="0 0 1024 1024" enable-background="new 0 0 1024 1024" xml:space="preserve">
<g>
	<g>
		<path fill-rule="evenodd" clip-rule="evenodd" fill="#848484" d="M415.741,826.749c26.404,26.397,69.21,26.397,95.621,0
			l382.463-382.476c26.411-26.404,26.411-69.21,0-95.614L606.976,61.803c-26.397-26.404-69.217-26.404-95.614,0l-382.47,382.47
			c-26.411,26.404-26.411,69.217,0,95.621L415.741,826.749z M511.362,157.424l286.849,286.849L606.976,635.507L320.127,348.659
			L511.362,157.424z M272.317,396.469l286.849,286.849l-95.614,95.621L176.703,492.083L272.317,396.469z M109.914,914.917V982
			h805.001v-67.083H109.914z"/>
	</g>
</g>
</svg>
