<?xml version="1.0" encoding="UTF-8"?>
<svg width="1024px" height="1024px" viewBox="0 0 1024 1024" version="1.1" xmlns="http://www.w3.org/2000/svg" xmlns:xlink="http://www.w3.org/1999/xlink">
    <!-- Generator: Sketch 55.2 (78181) - https://sketchapp.com -->
    <title>撤销</title>
    <desc>Created with Sketch.</desc>
    <g id="撤销" stroke="none" stroke-width="1" fill="none" fill-rule="evenodd">
        <path d="M459.00626,411.156578 L194.195868,411.156578 L378.958245,205.640603 C392.736451,191.055868 397.647946,169.710873 383.86974,155.126139 C370.091534,140.541404 342.798857,138.295422 329.020651,152.880157 L92.7844697,411.156578 C85.8617615,418.482551 75,424.915421 75,445.073727 C75,466.520129 85.8617615,471.153492 92.7844697,478.479465 L329.020651,734.094213 C342.798857,748.678948 368.002356,752.46942 383.86974,734.094213 C399.737124,715.719006 392.736451,694.917998 378.958245,680.333263 L194.195868,478.479465 L459.00626,478.479465 L468.482977,478.479465 L598.939061,478.479465 C753.456597,478.479465 880.921967,607.292102 880.921967,770.614247 L880.921967,844.546082 C880.921967,864.978153 894.397559,881.512 913.687047,881.512 C933.043746,881.512 948.703853,864.978153 948.703853,844.546082 L948.703853,770.614247 C948.703853,566.42796 792.102784,411.156578 598.939061,411.156578 L459.00626,411.156578 Z" fill="#848484"></path>
    </g>
</svg>