<?xml version="1.0" encoding="utf-8"?>
<!-- Generator: Adobe Illustrator 17.0.0, SVG Export Plug-In . SVG Version: 6.00 Build 0)  -->
<!DOCTYPE svg PUBLIC "-//W3C//DTD SVG 1.1//EN" "http://www.w3.org/Graphics/SVG/1.1/DTD/svg11.dtd">
<svg version="1.1" id="图形" xmlns="http://www.w3.org/2000/svg" xmlns:xlink="http://www.w3.org/1999/xlink" x="0px" y="0px"
	 width="1024px" height="1024px" viewBox="0 0 1024 1024" enable-background="new 0 0 1024 1024" xml:space="preserve">
<g>
	<g>
		<path fill-rule="evenodd" clip-rule="evenodd" fill="#848484" d="M814.147,75.575H209.866c-37.089,0-67.149,30.06-67.149,67.142
			v738.565c0,37.076,30.06,67.142,67.149,67.142h604.281c37.076,0,67.136-30.066,67.136-67.142V142.717
			C881.283,105.635,851.223,75.575,814.147,75.575z M209.866,142.717h268.569l-0.002,201.427H209.866V142.717z M209.866,411.287
			h268.567l-0.002,201.427H209.866V411.287z M209.866,881.283V679.856h268.564l-0.002,201.427H209.866z M814.147,881.283H545.571
			l0.002-201.427h268.574V881.283z M814.147,612.713H545.574l0.002-201.427h268.572V612.713z M814.147,344.144H545.576
			l0.002-201.427h268.569V344.144z"/>
	</g>
</g>
</svg>
