<?xml version="1.0" encoding="utf-8"?>
<!-- Generator: Adobe Illustrator 17.0.0, SVG Export Plug-In . SVG Version: 6.00 Build 0)  -->
<!DOCTYPE svg PUBLIC "-//W3C//DTD SVG 1.1//EN" "http://www.w3.org/Graphics/SVG/1.1/DTD/svg11.dtd">
<svg version="1.1" id="图形" xmlns="http://www.w3.org/2000/svg" xmlns:xlink="http://www.w3.org/1999/xlink" x="0px" y="0px"
	 width="1024px" height="1024px" viewBox="0 0 1024 1024" enable-background="new 0 0 1024 1024" xml:space="preserve">
<g>
	<g>
		<path fill-rule="evenodd" clip-rule="evenodd" fill="#848484" d="M881.282,108.643H142.711c-37.083,0-67.136,30.06-67.136,67.143
			v671.428c0,37.076,30.053,67.143,67.136,67.143h738.571c37.083,0,67.143-30.067,67.143-67.143V175.786
			C948.425,138.703,918.365,108.643,881.282,108.643z M881.282,847.214H142.711V175.786h738.571V847.214z M310.568,444.357
			c55.621,0,100.714-45.093,100.714-100.714c0-55.621-45.093-100.714-100.714-100.714c-55.621,0-100.714,45.093-100.714,100.714
			C209.854,399.264,254.947,444.357,310.568,444.357z M310.568,310.072c18.538,0,33.571,15.027,33.571,33.571
			c0,18.538-15.033,33.571-33.571,33.571c-18.538,0-33.571-15.033-33.571-33.571C276.997,325.098,292.03,310.072,310.568,310.072z"
			/>
	</g>
</g>
<g>
	
		<rect x="287.905" y="562.366" transform="matrix(0.7071 0.7071 -0.7071 0.7071 527.0345 -80.6409)" fill-rule="evenodd" clip-rule="evenodd" fill="#848484" width="145.909" height="67"/>
	<circle fill-rule="evenodd" clip-rule="evenodd" fill="#848484" cx="412.462" cy="647.448" r="33.5"/>
	<circle fill-rule="evenodd" clip-rule="evenodd" fill="#848484" cx="309.309" cy="544.316" r="33.5"/>
</g>
<g>
	
		<rect x="57.946" y="615.291" transform="matrix(0.7071 -0.7071 0.7071 0.7071 -398.7468 334.9224)" fill-rule="evenodd" clip-rule="evenodd" fill="#848484" width="293.935" height="67"/>
	<circle fill-rule="evenodd" clip-rule="evenodd" fill="#848484" cx="309.389" cy="544.316" r="33.5"/>
</g>
<g>
	
		<rect x="363.954" y="497.246" transform="matrix(0.7071 -0.7071 0.7071 0.7071 -220.2955 529.6517)" fill-rule="evenodd" clip-rule="evenodd" fill="#848484" width="330.489" height="67"/>
	<circle fill-rule="evenodd" clip-rule="evenodd" fill="#848484" cx="646.597" cy="413.347" r="33.5"/>
	<circle fill-rule="evenodd" clip-rule="evenodd" fill="#848484" cx="438.236" cy="621.708" r="33.5"/>
</g>
<g>
	
		<rect x="590.686" y="514.687" transform="matrix(0.7071 0.7071 -0.7071 0.7071 616.4916 -391.9681)" fill-rule="evenodd" clip-rule="evenodd" fill="#848484" width="381.415" height="67"/>
	<circle fill-rule="evenodd" clip-rule="evenodd" fill="#848484" cx="646.579" cy="413.373" r="33.5"/>
</g>
</svg>
