<?xml version="1.0" encoding="utf-8"?>
<!-- Generator: Adobe Illustrator 17.0.0, SVG Export Plug-In . SVG Version: 6.00 Build 0)  -->
<!DOCTYPE svg PUBLIC "-//W3C//DTD SVG 1.1//EN" "http://www.w3.org/Graphics/SVG/1.1/DTD/svg11.dtd">
<svg version="1.1" id="图形" xmlns="http://www.w3.org/2000/svg" xmlns:xlink="http://www.w3.org/1999/xlink" x="0px" y="0px"
	 width="1024px" height="1024px" viewBox="0 0 1024 1024" enable-background="new 0 0 1024 1024" xml:space="preserve">
<g>
	<g>
		<path fill-rule="evenodd" clip-rule="evenodd" fill="#848484" d="M109.143,176.286C72.06,176.286,42,206.346,42,243.429
			s30.06,67.143,67.143,67.143c37.083,0,67.136-30.06,67.136-67.143S146.226,176.286,109.143,176.286z M109.143,444.857
			C72.06,444.857,42,474.917,42,512s30.06,67.143,67.143,67.143c37.083,0,67.136-30.06,67.136-67.143
			S146.226,444.857,109.143,444.857z M109.143,713.429C72.06,713.429,42,743.488,42,780.571s30.06,67.143,67.143,67.143
			c37.083,0,67.136-30.06,67.136-67.143S146.226,713.429,109.143,713.429z M310.571,243.429v67.143H982v-67.143H310.571z
			 M310.571,579.143H982V512H310.571V579.143z M310.571,847.714H982v-67.143H310.571V847.714z"/>
	</g>
</g>
</svg>
