<?xml version="1.0" encoding="utf-8"?>
<!-- Generator: Adobe Illustrator 17.0.0, SVG Export Plug-In . SVG Version: 6.00 Build 0)  -->
<!DOCTYPE svg PUBLIC "-//W3C//DTD SVG 1.1//EN" "http://www.w3.org/Graphics/SVG/1.1/DTD/svg11.dtd">
<svg version="1.1" id="图形" xmlns="http://www.w3.org/2000/svg" xmlns:xlink="http://www.w3.org/1999/xlink" x="0px" y="0px"
	 width="1024px" height="1024px" viewBox="0 0 1024 1024" enable-background="new 0 0 1024 1024" xml:space="preserve">
<g>
	<path fill="none" d="M442.99-146.22c0.222-0.128,0.629-0.269,1.02-0.269c0.529,0,0.826,0.05,0.975,0.147
		c0.182,0.118,0.268,0.196,0.366,0.346c0.099,0.15,0.148,0.343,0.148,0.579c0,0.268-0.059,0.469-0.176,0.603
		c-0.308,0.354-0.862,0.263-1.418,0.271c-0.277,0.004-0.74,0.063-1.162,0.177c-0.23,0.062-0.436,0.169-0.62,0.314
		c-0.184,0.145-0.333,0.346-0.446,0.602c-0.113,0.256-0.169,0.589-0.169,0.999c0,0.325,0.047,0.609,0.141,0.852
		c0.094,0.243,0.219,0.444,0.378,0.602c0.158,0.158,0.341,0.278,0.547,0.359c0.207,0.081,0.701,0.139,0.927,0.139
		c0.395,0,1.66-0.327,2-1c0,0.519,0.475,1,1,1c0.326,0,0.469-0.006,0.469-0.006l0-0.981c0,0-0.461-0.006-0.469-0.013
		c-0.089-0.073,0-0.5,0-1v-3c0.018-0.639-0.097-1.103-0.702-1.517c-0.541-0.37-1.793-0.483-1.831-0.483
		c-0.543,0-1.118,0.12-1.526,0.461c-0.548,0.459-0.926,1.182-0.942,1.539h1C442.5-145.725,442.815-146.119,442.99-146.22z
		 M445.497-142.584c0,0.197-0.056,0.274-0.167,0.426c-0.112,0.151-0.251,0.276-0.419,0.374c-0.168,0.098-0.346,0.168-0.535,0.209
		c-0.189,0.041-0.365,0.061-0.528,0.061c-0.129,0-0.273-0.012-0.432-0.037c-0.159-0.025-0.305-0.068-0.438-0.129
		c-0.133-0.061-0.247-0.145-0.341-0.252c-0.095-0.106-0.142-0.237-0.142-0.393c0-0.18,0.032-0.333,0.097-0.46
		c0.064-0.127,0.152-0.229,0.264-0.307c0.112-0.078,0.24-0.139,0.387-0.184c0.146-0.045,0.296-0.08,0.451-0.104
		c0.326-0.057,0.494-0.021,0.806-0.121c0.49-0.156,0.999-0.375,0.999-0.375L445.497-142.584z M441.5-136.5h12v-3h-12V-136.5z
		 M448.5-141.5c0.504,0.427,1.003,1,2,1c1.653,0,3-1.646,3-3.471c0-1.806-1.341-3.529-3-3.529c-0.866,0-1.636,0.461-2,1
		c-0.033,0.019,0-4,0-4h-1v10h1C448.5-140.5,448.5-141.179,448.5-141.5z M450.49-146.481c1.104,0,1.999,1.118,1.999,2.498
		c0,1.38-0.895,2.498-1.999,2.498s-1.999-1.118-1.999-2.498C448.49-145.362,449.385-146.481,450.49-146.481z"/>
</g>
<g>
	<g>
		<path fill="#848484" d="M445.357,645.786c0-10.286,0-33.558,0-67.143V377.214c1.195-42.891-6.513-74.065-47.114-101.869
			c-36.304-24.87-83.743-32.423-122.912-32.423c-40.831,0-75.052,8.037-102.44,30.98c-36.814,30.845-62.161,79.37-63.249,103.313
			h67.136c0-15.127,21.157-41.561,32.88-48.336c14.912-8.621,42.219-18.095,68.479-18.095c35.525,0,55.433,3.371,65.444,9.883
			c12.213,7.95,17.974,13.14,24.588,23.211c6.634,10.085,9.944,23.037,9.944,38.856c0,18.008-3.982,31.47-11.831,40.487
			c-20.68,23.782-57.857,17.672-95.182,18.189c-18.578,0.255-49.706,4.203-78.047,11.851c-15.429,4.163-29.268,11.334-41.629,21.076
			c-12.354,9.756-22.325,23.225-29.919,40.433c-7.587,17.209-11.381,39.567-11.381,67.096c0,21.801,3.136,40.863,9.434,57.206
			c6.278,16.349,14.738,29.832,25.373,40.433c10.615,10.622,22.862,18.646,36.741,24.091c13.872,5.439,43.826,9.333,62.255,9.333
			c35.571,0,111.437-21.969,134.286-67.143c0,34.874,31.886,67.143,67.143,67.143c21.902,0,31.497-0.41,31.497-0.41l-0.013-65.874
			C476.84,646.645,445.357,646.506,445.357,645.786z M378.04,573.03c0,13.22-3.753,18.411-11.246,28.576
			c-7.5,10.172-16.86,18.538-28.106,25.132c-11.246,6.593-23.218,11.273-35.901,14.013c-12.683,2.76-24.514,4.123-35.458,4.123
			c-8.641,0-18.317-0.819-28.972-2.471c-10.676-1.652-20.479-4.532-29.415-8.655c-8.943-4.123-16.591-9.749-22.916-16.9
			c-6.358-7.137-9.521-15.926-9.521-26.374c0-12.079,2.162-22.385,6.486-30.906c4.324-8.514,10.233-15.376,17.732-20.606
			c7.493-5.217,16.141-9.34,25.957-12.361c9.789-3.015,19.888-5.365,30.268-7.01c21.902-3.841,45.552-7.091,54.124-8.091
			c34.318-4.004,67.082-25.179,67.082-25.179L378.04,573.03z M713.922,242.929c-58.139,0-109.866,30.926-134.279,67.143
			c-2.196,1.289,0-268.571,0-268.571H512.5v671.429h67.143c0,0,0-45.583,0-67.143c33.86,28.663,67.338,67.143,134.279,67.143
			c111.014,0,201.402-110.49,201.435-233.039C915.384,358.616,825.312,242.929,713.922,242.929z M713.237,646.806
			c-74.139,0-134.239-75.093-134.239-167.73c0-92.63,60.1-167.723,134.239-167.723s134.239,75.093,134.239,167.723
			C847.476,571.714,787.376,646.806,713.237,646.806z"/>
	</g>
</g>
</svg>
