<?xml version="1.0" encoding="utf-8"?>
<!-- Generator: Adobe Illustrator 17.0.0, SVG Export Plug-In . SVG Version: 6.00 Build 0)  -->
<!DOCTYPE svg PUBLIC "-//W3C//DTD SVG 1.1//EN" "http://www.w3.org/Graphics/SVG/1.1/DTD/svg11.dtd">
<svg version="1.1" id="图形" xmlns="http://www.w3.org/2000/svg" xmlns:xlink="http://www.w3.org/1999/xlink" x="0px" y="0px"
	 width="1024px" height="1024px" viewBox="0 0 1024 1024" enable-background="new 0 0 1024 1024" xml:space="preserve">
<path fill="#535353" d="M149.145,404.487l-0.247,1.102c46.007-158.71,192.085-275.066,364.818-275.066
	c172.235,0,317.923,115.708,364.369,273.719l0.478-0.191c3.849,8.324,12.103,15.151,21.623,14.122
	c21.245-3.36,26.185-18.078,21.986-34.463C867.811,209.099,705.552,82.336,513.715,82.336
	c-195.34,0-360.017,131.429-411.328,310.983L42,376.225l47.996,143.806l122.242-95.619L149.145,404.487z M982,651.791
	l-47.996-143.804l-122.242,95.616l65.521,18.546c-47.22,156.767-192.217,271.327-363.568,271.327
	c-170.929,0-315.598-114.012-363.183-270.18l-0.097,0.021c-2.857-10.324-12.012-17.93-22.986-17.93
	c-25.999,0-23.997,29.149-23.997,29.149c52.544,177.587,216.318,307.126,410.263,307.126c193.668,0,357.265-129.16,410.054-306.355
	L982,651.791z"/>
</svg>
