<?xml version="1.0" encoding="utf-8"?>
<!-- Generator: Adobe Illustrator 17.0.0, SVG Export Plug-In . SVG Version: 6.00 Build 0)  -->
<!DOCTYPE svg PUBLIC "-//W3C//DTD SVG 1.1//EN" "http://www.w3.org/Graphics/SVG/1.1/DTD/svg11.dtd">
<svg version="1.1" id="图形" xmlns="http://www.w3.org/2000/svg" xmlns:xlink="http://www.w3.org/1999/xlink" x="0px" y="0px"
	 width="1024px" height="1024px" viewBox="0 0 1024 1024" enable-background="new 0 0 1024 1024" xml:space="preserve">
<g>
	<g>
		<path fill-rule="evenodd" clip-rule="evenodd" fill="#848484" d="M780.566,75.575H243.434c-37.083,0-67.142,30.06-67.142,67.142
			v738.565c0,37.083,30.06,67.142,67.142,67.142h537.132c37.089,0,67.142-30.06,67.142-67.142V142.717
			C847.708,105.635,817.655,75.575,780.566,75.575z M780.566,881.283H243.434V142.717h537.132V881.283z M411.29,814.14h201.427
			c18.538,0,33.571-15.033,33.571-33.571s-15.033-33.571-33.571-33.571H411.29c-18.538,0-33.571,15.033-33.571,33.571
			S392.752,814.14,411.29,814.14z"/>
	</g>
</g>
</svg>
