<?xml version="1.0" encoding="UTF-8"?>
<svg width="1024px" height="1024px" viewBox="0 0 1024 1024" version="1.1" xmlns="http://www.w3.org/2000/svg" xmlns:xlink="http://www.w3.org/1999/xlink">
    <!-- Generator: Sketch 55.2 (78181) - https://sketchapp.com -->
    <title>标注</title>
    <desc>Created with Sketch.</desc>
    <g id="标注" stroke="none" stroke-width="1" fill="none" fill-rule="evenodd">
        <g transform="translate(0.000000, 96.000000)" fill="#848484">
            <path d="M294.417821,704.888493 C177.494273,688.936048 64.1666385,570.735992 64.1666385,449.757819 C64.1666385,319.675519 195.192837,192.805129 320.829124,192.805129 C384.609752,192.805129 421.055824,213.48982 452.304482,234.431464 C507.422751,271.304175 547.718761,201.798473 464.175122,159.144326 C416.564231,134.862297 377.679864,128.631194 320.829124,128.566525 C149.442749,128.43848 -0.4481422,271.49689 -0.00397246234,449.757819 C0.416112807,613.787806 127.900995,749.047838 282.471679,768.537342 C295.094998,770.128991 303.216813,706.088982 294.417821,704.888493 Z" id="路径"></path>
            <path d="M803.714665,293.033791 C803.714665,293.033791 675.618249,420.432594 442.55305,653.805202 C390.547822,705.800798 319.887155,704.074007 319.887155,704.074007 C319.887155,704.074007 330.23709,620.804307 367.228524,583.710278 C544.199632,406.618266 731.392898,220.636479 731.392898,220.636479 L803.714665,293.033791 Z M406.839386,450.61946 C387.67284,469.933937 371.636829,486.178563 358.795244,499.353339 C346.017546,512.46416 337.83982,520.842294 334.389842,524.359831 C327.362108,531.139085 321.101037,538.685801 315.606627,546.744159 C311.006656,553.843189 307.045569,561.32595 303.787257,569.064532 C300.848386,574.372815 297.142854,584.030054 292.415106,598.036248 C287.815135,612.106397 282.95961,627.45565 278.040196,644.147963 C273.120783,660.776321 268.456923,676.893037 264.048618,692.370201 C259.704201,707.91132 256.956996,719.743036 255.743115,727.929305 C253.379241,743.150648 254.912564,753.959081 260.087532,760.354603 C265.326388,766.81408 275.867988,769.180424 291.584556,767.453633 C299.123397,766.238483 310.623325,763.616319 326.084338,759.523185 C342.50368,755.110275 358.795244,750.313633 374.959031,745.069305 C392.145034,739.5052 408.628263,733.74923 424.344831,727.929305 C440.061399,722.045424 452.008546,717.120872 460.122383,713.027738 C468.555664,709.38229 476.477836,704.649604 483.697235,698.957589 C491.299965,693.137664 498.008256,687.509604 503.822108,682.329231 C506.185982,680.538485 513.405381,673.50341 525.671971,661.224008 C541.132985,645.618933 556.593998,630.013859 571.991124,614.280874 C603.935367,581.663711 892.519661,291.818642 892.519661,291.818642 L729.220689,126.878123 L406.839386,450.61946 Z M1020.4883,114.534765 C1019.08275,107.563645 1017.1661,101.423944 1014.80222,96.1156604 C1006.68839,78.5919294 995.124571,61.7717059 980.302442,45.718945 C965.480313,29.6022289 951.935954,18.3461097 939.669364,11.8866322 C933.855512,8.94469195 927.019444,6.32252782 919.16116,4.02013981 C911.302876,1.65379657 903.12515,0.374692115 894.755758,0.0549160018 C876.228097,-0.648591447 858.019878,5.4271547 843.644969,17.1309604 C837.192232,22.4392439 829.206171,29.6022289 819.622898,38.6838705 C809.975736,47.7015569 801.734122,55.504094 794.706388,61.8996163 L958.00536,226.008718 C961.902558,222.683046 979.919111,205.09536 985.541298,199.659166 C991.099596,194.414838 997.360668,188.275136 1004.32451,181.240062 C1010.71336,174.204987 1015.37722,166.914092 1018.31609,159.30342 C1021.25496,151.692749 1022.66051,144.082077 1022.66051,136.471406 C1022.66051,128.92469 1021.95774,121.569839 1020.4883,114.534765 L1020.4883,114.534765 Z"></path>
        </g>
    </g>
</svg>