<?xml version="1.0" encoding="utf-8"?>
<!-- Generator: Adobe Illustrator 17.0.0, SVG Export Plug-In . SVG Version: 6.00 Build 0)  -->
<!DOCTYPE svg PUBLIC "-//W3C//DTD SVG 1.1//EN" "http://www.w3.org/Graphics/SVG/1.1/DTD/svg11.dtd">
<svg version="1.1" id="图形" xmlns="http://www.w3.org/2000/svg" xmlns:xlink="http://www.w3.org/1999/xlink" x="0px" y="0px"
	 width="1024px" height="1024px" viewBox="0 0 1024 1024" enable-background="new 0 0 1024 1024" xml:space="preserve">
<g>
	<g>
		<path fill-rule="evenodd" clip-rule="evenodd" fill="#848484" d="M937.485,119.416c-13.835-13.694-36.266-13.694-50.107,0
			L444.482,628.421L269.12,454.91c-13.835-13.688-36.279-13.688-50.107,0c-13.842,13.688-13.842,35.883,0,49.571l196.317,194.19
			l0.601-0.001c5.898,9.566,16.469,15.944,28.532,15.944c12.087,0,22.677-6.403,28.568-16.001l0.583-0.001L937.485,168.98
			C951.32,155.292,951.32,133.097,937.485,119.416z M847.737,445.175c-18.532,0-33.541,15.023-33.541,33.555v369.029H143.227
			V176.796h503.222c18.532,0,33.555-15.023,33.555-33.548c0-18.532-15.023-33.548-33.555-33.548H143.227
			c-37.051,0-67.096,30.039-67.096,67.096v670.962c0,37.051,30.046,67.096,67.096,67.096h670.969
			c37.051,0,67.096-30.046,67.096-67.096V478.729C881.292,460.198,866.276,445.175,847.737,445.175z"/>
	</g>
</g>
</svg>
