<?xml version="1.0" encoding="utf-8"?>
<!-- Generator: Adobe Illustrator 17.0.0, SVG Export Plug-In . SVG Version: 6.00 Build 0)  -->
<!DOCTYPE svg PUBLIC "-//W3C//DTD SVG 1.1//EN" "http://www.w3.org/Graphics/SVG/1.1/DTD/svg11.dtd">
<svg version="1.1" id="图形" xmlns="http://www.w3.org/2000/svg" xmlns:xlink="http://www.w3.org/1999/xlink" x="0px" y="0px"
	 width="1024px" height="1024px" viewBox="0 0 1024 1024" enable-background="new 0 0 1024 1024" xml:space="preserve">
<g>
	<g>
		<path fill-rule="evenodd" clip-rule="evenodd" fill="#848484" d="M310.571,478.429C292.033,478.429,277,493.462,277,512
			s15.033,33.571,33.571,33.571c18.538,0,33.571-15.033,33.571-33.571S329.11,478.429,310.571,478.429z M512,478.429
			c-18.538,0-33.571,15.033-33.571,33.571s15.033,33.571,33.571,33.571s33.571-15.033,33.571-33.571S530.538,478.429,512,478.429z
			 M512,8.429C233.888,8.429,8.429,233.888,8.429,512S233.888,1015.571,512,1015.571S1015.571,790.112,1015.571,512
			S790.112,8.429,512,8.429z M512,948.429C270.971,948.429,75.571,753.036,75.571,512C75.571,270.971,270.971,75.571,512,75.571
			S948.429,270.971,948.429,512C948.429,753.036,753.029,948.429,512,948.429z M713.429,478.429
			c-18.538,0-33.571,15.033-33.571,33.571s15.033,33.571,33.571,33.571S747,530.538,747,512S731.967,478.429,713.429,478.429z"/>
	</g>
</g>
</svg>
