<?xml version="1.0" encoding="UTF-8"?>
<svg width="1024px" height="1024px" viewBox="0 0 1024 1024" version="1.1" xmlns="http://www.w3.org/2000/svg" xmlns:xlink="http://www.w3.org/1999/xlink">
    <!-- Generator: Sketch 55.2 (78181) - https://sketchapp.com -->
    <title> 铅笔</title>
    <desc>Created with Sketch.</desc>
    <g id="-铅笔" stroke="none" stroke-width="1" fill="none" fill-rule="evenodd">
        <path d="M868.998753,423.663919 L546.175585,72.0664004 C534.530479,60.4637669 525.555067,54.7672561 510.114246,54.0027893 C492.892264,53.8424978 484.772627,60.5993981 472.103866,72.0664004 L323.277888,206.341203 C320.845774,208.878062 311.395392,219.25407 307.106985,224.674963 C304.248047,228.288892 301.565047,234.930442 299.057987,244.599612 L147.138763,738.185547 C141.675483,759.054121 140.270039,773.119158 151.398529,784.012679 C162.7246,795.099609 185.435381,791.190233 202.902435,784.012679 C208.553604,781.690503 367.928854,734.217232 681.028183,641.592865 C692.397751,638.841269 700.736172,635.988652 706.043445,633.035012 C716.324257,627.313465 723.660239,618.317724 726.16299,615.994595 L862.627215,489.935749 C871.291436,481.970498 881.833672,472.942476 881.833672,458.253896 C881.833672,439.984606 876.782363,434.292766 868.998753,423.663919 Z M358.310638,681.685547 L257.337982,578.853516 L349.917046,285.116726 L651.157609,590.909209 L358.310638,681.685547 Z M209.201498,727.835481 L237.86142,634.339844 L301.335963,699.519085 C293.340035,702.133277 262.628546,711.572076 209.201498,727.835481 Z M818.412946,451.059411 L699.167592,558.173881 L385.512764,234.133366 L508.063529,123.627771 L818.412946,451.059411 Z" fill="#848484" fill-rule="nonzero"></path>
    </g>
</svg>