<?xml version="1.0" encoding="UTF-8"?>
<svg width="1024px" height="1024px" viewBox="0 0 1024 1024" version="1.1" xmlns="http://www.w3.org/2000/svg" xmlns:xlink="http://www.w3.org/1999/xlink">
    <!-- Generator: Sketch 55.2 (78181) - https://sketchapp.com -->
    <title>荧光笔</title>
    <desc>Created with Sketch.</desc>
    <g id="荧光笔" stroke="none" stroke-width="1" fill="none" fill-rule="evenodd">
        <path d="M316.038039,261.181559 L421.164062,146.4375 L826.085938,491.742188 C827.071586,490.760954 790.488253,526.36512 716.335938,598.554688 L316.038039,261.181559 Z M281.862197,589.326695 C336.951451,517.424694 330.267717,395.378637 320.30534,351.661048 C347.984594,381.310854 578.271387,566.16875 627.921722,605.58785 C536.806357,581.311155 422.538043,675.332456 421.353327,673.036672 C421.137925,672.597054 310.995419,612.431074 281.862197,589.326695 Z M335.17722,724.394679 C335.17722,724.360734 211.072989,724.394679 211.072989,724.394679 L257.641673,657.584204 L358.527131,707.504201 L335.17722,724.394679 Z M419.769531,66 C402.953125,66.8476563 398.034861,73.535369 388.536174,83.7905412 C310.974582,167.529217 266.460434,215.978449 254.993728,229.138235 C240.173604,245.829937 232.158639,267.888587 248.591838,288.125429 C266.335659,325.891019 296.328766,472.325005 224.899803,570.702646 C216.12871,578.629973 214.112366,582.962922 211.642346,587.049681 C199.74592,606.646428 213.104195,623.33813 213.104195,623.33813 C216.985656,619.79299 159.671096,695.324171 129.476354,733.089762 C105.028191,763.666596 123.981819,790.008957 145.959961,790.008957 L368.009773,790.008957 L418.519174,740.770899 C416.402013,741.214042 464.088533,751.800224 484.604827,723.685293 C544.389407,645.199828 672.477619,662.531624 718.450247,660.808292 C746.779871,668.144763 758.273028,656.623057 772.135389,642.294782 C779.208742,632.977 839.977268,574.454482 882.38627,533.931088 C905.863355,511.497852 902.036,513.149861 905.550781,496.273437 C903.832875,476.493611 898.616936,472.566134 886.355841,461.811029 C696.354605,295.147024 552.368947,168.846653 454.398867,82.9099183 C442.438969,72.4190155 436.964844,66.5703125 419.769531,66 Z" fill="#848484"></path>
    </g>
</svg>