<?xml version="1.0" encoding="UTF-8"?>
<svg width="1024px" height="1024px" viewBox="0 0 1024 1024" version="1.1" xmlns="http://www.w3.org/2000/svg" xmlns:xlink="http://www.w3.org/1999/xlink">
    <!-- Generator: Sketch 55.2 (78181) - https://sketchapp.com -->
    <title>形状</title>
    <desc>Created with Sketch.</desc>
    <g id="形状" stroke="none" stroke-width="1" fill="none" fill-rule="evenodd">
        <g transform="translate(143.000000, 42.000000)" fill="#848484" id="Fill-1">
            <path d="M0,939.755977 L671.428571,940 L335.714286,268.571429 L0,939.755977 Z M113.991378,872.857143 L337.154669,418.105624 L564.590181,872.857143 L113.991378,872.857143 Z"></path>
            <path d="M0,369.279 C0,491.142538 57.3167734,605.023561 145.929405,673.554935 C154.737294,680.366795 175.710186,610.848538 168.323413,604.285714 C103.886934,547.036732 66.8150112,463.082677 66.8150112,369.279 C66.8150112,196.732728 199.352738,68.0498977 369.285714,68.0498977 C539.21869,68.0498977 671.428571,196.732728 671.428571,369.279 C671.428571,497.079379 601.531283,607.907524 493.302564,656.322157 C474.673364,664.655674 501.471644,725.805968 519.772675,717.502618 C648.706424,659.004164 738.571429,521.965126 738.571429,369.279 C738.571429,162.235973 573.192976,-0.00671428571 369.285714,-0.00671428571 C165.378452,-0.00671428571 0,162.235973 0,369.279 Z"></path>
        </g>
    </g>
</svg>