<?xml version="1.0" encoding="utf-8"?>
<!-- Generator: Adobe Illustrator 17.0.0, SVG Export Plug-In . SVG Version: 6.00 Build 0)  -->
<!DOCTYPE svg PUBLIC "-//W3C//DTD SVG 1.1//EN" "http://www.w3.org/Graphics/SVG/1.1/DTD/svg11.dtd">
<svg version="1.1" id="图形" xmlns="http://www.w3.org/2000/svg" xmlns:xlink="http://www.w3.org/1999/xlink" x="0px" y="0px"
	 width="1024px" height="1024px" viewBox="0 0 1024 1024" enable-background="new 0 0 1024 1024" xml:space="preserve">
<g>
	<g>
		<path fill-rule="evenodd" clip-rule="evenodd" fill="#848484" d="M970.485,119.416c-13.835-13.694-36.266-13.694-50.107,0
			L477.482,628.421L302.12,454.91c-13.835-13.688-36.279-13.688-50.107,0c-13.842,13.688-13.842,35.883,0,49.571l200.317,198.19
			l0.074,0c6.137,6.915,15.086,11.277,25.059,11.277c10,0,18.971-4.387,25.109-11.335l0.042,0L970.485,168.98
			C984.32,155.292,984.32,133.097,970.485,119.416z M880.737,445.175c-18.532,0-33.541,15.023-33.541,33.555v369.029H176.227
			V176.796h503.222c18.532,0,33.555-15.023,33.555-33.548c0-18.532-15.023-33.548-33.555-33.548H176.227
			c-37.051,0-67.096,30.039-67.096,67.096v670.962c0,37.051,30.046,67.096,67.096,67.096h670.969
			c37.051,0,67.096-30.046,67.096-67.096V478.729C914.292,460.198,899.276,445.175,880.737,445.175z"/>
	</g>
</g>
</svg>
