<?xml version="1.0" encoding="utf-8"?>
<!-- Generator: Adobe Illustrator 17.0.0, SVG Export Plug-In . SVG Version: 6.00 Build 0)  -->
<!DOCTYPE svg PUBLIC "-//W3C//DTD SVG 1.1//EN" "http://www.w3.org/Graphics/SVG/1.1/DTD/svg11.dtd">
<svg version="1.1" id="图形" xmlns="http://www.w3.org/2000/svg" xmlns:xlink="http://www.w3.org/1999/xlink" x="0px" y="0px"
	 width="1024px" height="1024px" viewBox="0 0 1024 1024" enable-background="new 0 0 1024 1024" xml:space="preserve">
<g>
	<g>
		<path fill-rule="evenodd" clip-rule="evenodd" fill="#848484" d="M928.594,239.033L784.963,95.408
			c-26.434-26.441-69.307-26.441-95.747,0L497.714,286.91c-26.441,26.441-26.441,69.313,0,95.754l47.876,47.874L430.538,545.592
			l-47.872-47.874c-26.448-26.441-69.313-26.441-95.754,0L95.411,689.22c-26.448,26.441-26.448,69.313,0,95.747l143.625,143.625
			c26.441,26.441,69.313,26.441,95.754,0l191.495-191.495c26.448-26.448,26.448-69.313,0-95.754l-47.875-47.877l115.057-115.054
			l47.879,47.877c26.441,26.441,69.307,26.441,95.754,0l191.495-191.502C955.035,308.346,955.035,265.48,928.594,239.033z
			 M478.414,689.22L286.912,880.721L143.288,737.097l191.502-191.508l47.876,47.878l-23.94,23.941c-13.22,13.22-13.22,34.65,0,47.87
			c13.227,13.22,34.657,13.22,47.87,0l23.94-23.939L478.414,689.22z M689.216,478.411l-47.873-47.875l23.938-23.937
			c13.22-13.214,13.22-34.65,0-47.877c-13.22-13.22-34.657-13.22-47.877,0l-23.936,23.937l-47.87-47.872l191.502-191.502
			L880.724,286.91L689.216,478.411z"/>
	</g>
</g>
</svg>
