<?xml version="1.0" encoding="utf-8"?>
<!-- Generator: Adobe Illustrator 17.0.0, SVG Export Plug-In . SVG Version: 6.00 Build 0)  -->
<!DOCTYPE svg PUBLIC "-//W3C//DTD SVG 1.1//EN" "http://www.w3.org/Graphics/SVG/1.1/DTD/svg11.dtd">
<svg version="1.1" id="图形" xmlns="http://www.w3.org/2000/svg" xmlns:xlink="http://www.w3.org/1999/xlink" x="0px" y="0px"
	 width="1024px" height="1024px" viewBox="0 0 1024 1024" enable-background="new 0 0 1024 1024" xml:space="preserve">
<path fill-rule="evenodd" clip-rule="evenodd" fill="#535353" d="M504.844,534.75"/>
<g>
	<g>
		<path fill-rule="evenodd" clip-rule="evenodd" fill="#535353" d="M914.857,650.714v-67.143
			c0-81.558-35.673-134.245-134.299-134.245c-99.62,0-134.272,49.545-134.272,134.245v67.143c-37.083,0-67.143,30.06-67.143,67.143
			v201.429c0,37.083,30.06,67.143,67.143,67.143h268.571c37.083,0,67.143-30.06,67.143-67.143V717.857
			C982,680.774,951.94,650.714,914.857,650.714z M847.714,852.143H713.429V785h134.286V852.143z M847.714,583.571v67.143H713.429
			v-67.143c0.007-37.66-2.068-67.143,67.143-67.143C848.809,516.429,847.714,545.515,847.714,583.571z M583.131,522.903
			c-4.681-6.185-12.63-11.653-24.762-15.465c-66.035-22.587-113.512-85.184-113.512-158.867
			c0-92.704,75.153-167.857,167.857-167.857s167.857,75.153,167.857,167.857c0,50.74,67.143,39.929,67.143,0
			c0-129.787-105.213-235-235-235s-235,105.213-235,235c0,78.979,38.962,148.856,98.714,191.464
			c-136.499,49.303-233,170.458-233,312.107c0,70.003,67.143,70.695,67.143,0c0-132.419,107.811-242.453,249.664-264.536
			C592.309,579.343,595.711,537.255,583.131,522.903z M310.571,516.429c-74.159,0-134.286-60.12-134.286-134.286
			s60.126-134.286,134.286-134.286c65.773,0,69.285-67.143,0-67.143c-111.249,0-201.429,90.18-201.429,201.429
			c0,66.553,32.285,125.559,82.041,162.236C102.767,588.333,42,679.563,42,785c0,68.593,67.143,65.082,67.143,0
			c0-111.249,90.18-201.429,201.429-201.429C377.755,583.571,378.5,516.429,310.571,516.429z"/>
	</g>
</g>
</svg>
