<?xml version="1.0" encoding="utf-8"?>
<!-- Generator: Adobe Illustrator 17.0.0, SVG Export Plug-In . SVG Version: 6.00 Build 0)  -->
<!DOCTYPE svg PUBLIC "-//W3C//DTD SVG 1.1//EN" "http://www.w3.org/Graphics/SVG/1.1/DTD/svg11.dtd">
<svg version="1.1" id="图形" xmlns="http://www.w3.org/2000/svg" xmlns:xlink="http://www.w3.org/1999/xlink" x="0px" y="0px"
	 width="1024px" height="1024px" viewBox="0 0 1024 1024" enable-background="new 0 0 1024 1024" xml:space="preserve">
<g>
	<g>
		<path fill="#535353" d="M612.71,142.717h268.57c18.545,0,33.571-15.033,33.571-33.571c0-18.545-15.026-33.571-33.571-33.571
			H612.71c-18.538,0-33.564,15.026-33.564,33.571C579.146,127.684,594.172,142.717,612.71,142.717z M847.715,209.859H579.139
			c-80.813,0-49.101-134.285-201.42-134.285h-201.44C96.264,75.574,42,124.461,42,209.859v604.281
			c0,77.435,55.48,134.285,134.278,134.285h671.437c79.591,0,134.285-59.884,134.285-134.285V344.144
			C982,267.199,922.425,209.859,847.715,209.859z M914.851,814.141c0,38.694-32.906,66.733-67.136,67.142H176.278
			c-33.014,0-67.136-30.906-67.136-67.142V209.859c0-34.672,31.06-67.142,67.136-67.142h201.44
			c40.494,0,67.136,30.066,81.679,56.131c24.896,43.515,49.377,77.67,119.742,78.154h268.576c36.499,0,67.136,39.789,67.136,67.142
			V814.141z"/>
	</g>
</g>
<g opacity="0.3">
	<g>
		<path fill="#535353" d="M847.715,277.002H579.139c-70.365-0.483-94.845-34.639-119.742-78.154
			c-14.543-26.065-41.185-56.131-81.679-56.131h-201.44c-36.076,0-67.136,32.47-67.136,67.142v604.281
			c0,36.237,34.122,67.142,67.136,67.142h671.437c34.229-0.41,67.136-28.448,67.136-67.142V344.144
			C914.851,316.79,884.214,277.002,847.715,277.002z"/>
	</g>
</g>
</svg>
