<?xml version="1.0" encoding="utf-8"?>
<!-- Generator: Adobe Illustrator 17.0.0, SVG Export Plug-In . SVG Version: 6.00 Build 0)  -->
<!DOCTYPE svg PUBLIC "-//W3C//DTD SVG 1.1//EN" "http://www.w3.org/Graphics/SVG/1.1/DTD/svg11.dtd">
<svg version="1.1" id="图形" xmlns="http://www.w3.org/2000/svg" xmlns:xlink="http://www.w3.org/1999/xlink" x="0px" y="0px"
	 width="1024px" height="1024px" viewBox="0 0 1024 1024" enable-background="new 0 0 1024 1024" xml:space="preserve">
<g opacity="0.3">
	<g>
		<path fill-rule="evenodd" clip-rule="evenodd" fill="#535353" d="M893.744,549.238c-27.811-23.985-391.497-385.029-453.24-447.396
			c-16.207-16.366-241.323,18.585-241.323,18.585c-52.212,7.937-78.609,32.414-81.901,82.969c0,0-22.197,207.542-19.021,243.499
			c46.125,46.583,416.743,420.493,445.691,449.268c36.227,36.587,55.823,37.266,97.235-0.021
			c0.187,0.007,245.156-236.408,252.56-242.924C938.178,612.901,936.653,591.821,893.744,549.238z"/>
	</g>
</g>
<g>
	<g>
		<path fill-rule="evenodd" clip-rule="evenodd" fill="#535353" d="M943.563,523.694L495.625,71.185
			c-20.603-20.838-48.764-31.284-78.473-28.834L157.289,64.394c-49.699,4.22-88.811,43.749-92.977,93.994L42.565,421.011
			c-2.423,29.581,8.003,58.476,28.585,79.274l447.938,452.502c18.826,19.028,43.958,29.406,70.759,29.211
			c26.822-0.195,52.102-10.931,71.177-30.221c0,0,281.584-284.666,286.551-286.652C997.873,616.2,989.426,568.951,943.563,523.694z
			 M881.473,645.66c-7.188,6.327-245.043,235.876-245.225,235.869c-40.209,36.204-59.236,35.545-94.411,0.02
			c-28.107-27.939-432.747-436.22-432.747-436.22l18.469-236.428c3.197-49.087,28.827-72.853,79.523-80.559l234.314-18.045
			c0,0,413.074,411.115,440.077,434.403C923.136,586.047,924.617,606.514,881.473,645.66z M310.539,241
			c-37.146,0.269-67.461,30.974-67.717,68.599c-0.242,37.624,29.662,67.899,66.808,67.636c37.153-0.269,67.461-30.981,67.71-68.599
			C377.59,271.005,347.692,240.73,310.539,241z"/>
	</g>
</g>
</svg>
