<?xml version="1.0" encoding="utf-8"?>
<!-- Generator: Adobe Illustrator 17.0.0, SVG Export Plug-In . SVG Version: 6.00 Build 0)  -->
<!DOCTYPE svg PUBLIC "-//W3C//DTD SVG 1.1//EN" "http://www.w3.org/Graphics/SVG/1.1/DTD/svg11.dtd">
<svg version="1.1" id="图形" xmlns="http://www.w3.org/2000/svg" xmlns:xlink="http://www.w3.org/1999/xlink" x="0px" y="0px"
	 width="1024px" height="1024px" viewBox="0 0 1024 1024" enable-background="new 0 0 1024 1024" xml:space="preserve">
<path opacity="0.3" fill-rule="evenodd" clip-rule="evenodd" fill="#535353" d="M276.045,342.472h470.909
	c74.309,0,134.545,60.236,134.545,134.545v403.636c0,74.309-60.236,134.545-134.545,134.545H276.045
	c-74.309,0-134.545-60.236-134.545-134.545V477.017C141.5,402.708,201.736,342.472,276.045,342.472z"/>
<g>
	<g>
		<path fill="#535353" d="M398.21,192.016c10.649-8.907,80.653-82.194,80.653-82.194v538.182c0,16.845,16.004,33.636,33.636,33.636
			s33.636-16.791,33.636-33.636V109.823c0,0,77.996,77.491,81.723,83.304c31.484,31.443,73.179-10.273,40.303-45.127L539.409,20.491
			c-15.843-15.587-37.969-15.587-53.818,0c0.121-0.081-96.328,98.629-127.233,127.596
			C322.004,184.919,368.092,224.422,398.21,192.016z M747.955,342.472h-52.636c-18.574,0-33.636,15.062-33.636,33.636
			c0,18.574,15.062,33.636,33.636,33.636h52.636c37.155,0,67.273,30.118,67.273,67.273v403.636
			c0,37.155-30.118,67.273-67.273,67.273H277.045c-37.155,0-67.273-30.118-67.273-67.273V477.017
			c0-37.155,30.118-67.273,67.273-67.273h53.636c18.574,0,33.636-15.062,33.636-33.636c0-18.574-15.062-33.636-33.636-33.636
			h-53.636c-74.309,0-134.545,60.236-134.545,134.545v403.636c0,74.309,60.236,134.545,134.545,134.545h470.909
			c74.309,0,134.545-60.236,134.545-134.545V477.017C882.5,402.708,822.264,342.472,747.955,342.472z"/>
	</g>
</g>
</svg>
