<?xml version="1.0" encoding="utf-8"?>
<!-- Generator: Adobe Illustrator 17.0.0, SVG Export Plug-In . SVG Version: 6.00 Build 0)  -->
<!DOCTYPE svg PUBLIC "-//W3C//DTD SVG 1.1//EN" "http://www.w3.org/Graphics/SVG/1.1/DTD/svg11.dtd">
<svg version="1.1" id="图形" xmlns="http://www.w3.org/2000/svg" xmlns:xlink="http://www.w3.org/1999/xlink" x="0px" y="0px"
	 width="1024px" height="1024px" viewBox="0 0 1024 1024" enable-background="new 0 0 1024 1024" xml:space="preserve">
<g>
	<g>
		<path fill="#535353" d="M972.157,924.498L752.77,705.111c59.471-70.229,95.334-161.085,95.334-260.319
			c0-222.599-180.453-403.052-403.052-403.052S42,222.193,42,444.792s180.453,403.052,403.052,403.052
			c98.966,0,189.6-35.671,259.751-94.855l219.431,219.425c13.173,13.173,34.575,13.119,47.809-0.114
			C985.276,959.067,985.323,937.665,972.157,924.498z M109.175,444.792c0-185.498,150.379-335.877,335.877-335.877
			s335.877,150.379,335.877,335.877S630.55,780.669,445.052,780.669S109.175,630.29,109.175,444.792z"/>
	</g>
</g>
</svg>
