<?xml version="1.0" encoding="utf-8"?>
<!-- Generator: Adobe Illustrator 17.0.0, SVG Export Plug-In . SVG Version: 6.00 Build 0)  -->
<!DOCTYPE svg PUBLIC "-//W3C//DTD SVG 1.1//EN" "http://www.w3.org/Graphics/SVG/1.1/DTD/svg11.dtd">
<svg version="1.1" id="图形" xmlns="http://www.w3.org/2000/svg" xmlns:xlink="http://www.w3.org/1999/xlink" x="0px" y="0px"
	 width="1024px" height="1024px" viewBox="0 0 1024 1024" enable-background="new 0 0 1024 1024" xml:space="preserve">
<g>
	<g>
		<path fill="#535353" d="M310.571,517.616c-74.166,0-134.286-60.12-134.286-134.286s60.12-134.286,134.286-134.286
			c65.773,0,69.285-67.143,0-67.143c-111.249,0-201.429,90.18-201.429,201.429c0,66.556,32.285,125.562,82.04,162.238
			C102.769,589.522,42,680.752,42,786.187c0,68.593,67.143,65.088,67.143,0c0-111.249,90.18-201.429,201.429-201.429
			C378.5,584.758,381.5,517.616,310.571,517.616z M749,541.222c59.751-42.608,98.714-112.484,98.714-191.464
			c0-129.787-105.213-235-235-235s-235,105.213-235,235c0,78.979,38.963,148.856,98.714,191.464
			c-136.497,49.301-233,170.458-233,312.108c0,70.01,67.143,70.695,67.143,0c0-148.325,135.273-268.571,302.143-268.571
			S914.857,705.005,914.857,853.33c0,67.17,67.143,72.504,67.143,0C982,711.68,885.497,590.523,749,541.222z M612.714,517.616
			c-92.704,0-167.857-75.153-167.857-167.857s75.153-167.857,167.857-167.857s167.857,75.153,167.857,167.857
			S705.418,517.616,612.714,517.616z"/>
	</g>
</g>
</svg>
