<?xml version="1.0" encoding="utf-8"?>
<!-- Generator: Adobe Illustrator 17.0.0, SVG Export Plug-In . SVG Version: 6.00 Build 0)  -->
<!DOCTYPE svg PUBLIC "-//W3C//DTD SVG 1.1//EN" "http://www.w3.org/Graphics/SVG/1.1/DTD/svg11.dtd">
<svg version="1.1" id="图形" xmlns="http://www.w3.org/2000/svg" xmlns:xlink="http://www.w3.org/1999/xlink" x="0px" y="0px"
	 width="1024px" height="1024px" viewBox="0 0 1024 1024" enable-background="new 0 0 1024 1024" xml:space="preserve">
<g opacity="0.3">
	<g>
		<path fill-rule="evenodd" clip-rule="evenodd" fill="#535353" d="M975.751,687.922c0.158-1.525,0.249-3.068,0.249-4.637
			c0-91.817-61.431-169.274-145.433-193.534c50.371-28.972,84.29-83.33,84.29-145.609c0-92.704-75.153-167.857-167.857-167.857
			c-25.717,0-50.079,5.791-71.864,16.129C638.53,141.961,579.103,109.143,512,109.143s-126.53,32.818-163.135,83.271
			c-21.786-10.337-46.148-16.129-71.865-16.129c-92.704,0-167.857,75.153-167.857,167.857c0,52.643,24.241,99.619,62.162,130.394
			C96.738,528.232,55,636.848,55,646.286c0,8.382,2.301,16.127,6.53,23.246C48.906,682.793,42,697.425,42,713.429
			c0,39.863,34.27,67.143,67.143,67.143c37.083,0,67.143,0,67.143,0c0,28.046,0,67.143,0,67.143
			c0,37.083,30.06,67.143,67.143,67.143h537.143c37.083,0,67.143-30.06,67.143-67.143c0,0,0-45.395,0-67.143c0,0,30.06,0,67.143,0
			c32.873,0,67.143-27.28,67.143-67.143C982,704.499,979.844,695.998,975.751,687.922z"/>
	</g>
</g>
<g>
	<g>
		<path fill-rule="evenodd" clip-rule="evenodd" fill="#535353" d="M861.284,467.071c32.952-30.649,53.573-74.377,53.573-122.928
			c0-92.704-75.153-167.857-167.857-167.857c-46.5,0-41.5,67.143,0,67.143c55.621,0,100.714,45.093,100.714,100.714
			c0,55.621-45.093,100.714-100.714,100.714c-36.024,0-39.811,51.987-12.772,64.466c3.326,2.707,7.286,4.319,11.825,4.335
			c119.991,0.45,170.456,88.608,168.804,199.77c-17.811,0-54.131,0-73.865,0c-22.668-111.667-100.765-203.194-204.319-244.641
			c46.747-36.886,76.755-94.044,76.755-158.216c0-111.249-90.18-201.429-201.429-201.429s-201.429,90.18-201.429,201.429
			c0,64.172,30.008,121.33,76.755,158.216c-103.554,41.447-181.651,132.975-204.319,244.641c-21.866,0-60.595,0-73.865,0
			c-1.652-111.162,48.813-199.32,168.804-199.77c4.54-0.017,8.499-1.628,11.825-4.335c27.039-12.479,23.253-64.466-12.772-64.466
			c-55.621,0-100.714-45.093-100.714-100.714c0-55.621,45.093-100.714,100.714-100.714c44.5,0,43.5-67.143,0-67.143
			c-92.704,0-167.857,75.153-167.857,167.857c0,48.551,20.621,92.279,53.573,122.928C83.079,501.401,42,580.291,42,713.429
			c0,39.863,34.27,67.143,67.143,67.143c37.083,0,67.143,0,67.143,0c0,28.046,0,67.143,0,67.143
			c0,37.083,30.06,67.143,67.143,67.143h537.143c37.083,0,67.143-30.06,67.143-67.143c0,0,0-45.395,0-67.143c0,0,30.06,0,67.143,0
			c32.873,0,67.143-27.28,67.143-67.143C982,580.291,940.921,501.401,861.284,467.071z M377.714,310.571
			c0-74.166,60.12-134.286,134.286-134.286s134.286,60.12,134.286,134.286S586.166,444.857,512,444.857
			S377.714,384.737,377.714,310.571z M780.571,847.714H243.429c0,0,0-15.214,0-67.143C243.429,632.246,363.675,512,512,512
			s268.571,120.246,268.571,268.571C780.571,824.5,780.571,847.714,780.571,847.714z"/>
	</g>
</g>
</svg>
