<?xml version="1.0" encoding="utf-8"?>
<!-- Generator: Adobe Illustrator 17.0.0, SVG Export Plug-In . SVG Version: 6.00 Build 0)  -->
<!DOCTYPE svg PUBLIC "-//W3C//DTD SVG 1.1//EN" "http://www.w3.org/Graphics/SVG/1.1/DTD/svg11.dtd">
<svg version="1.1" id="图形" xmlns="http://www.w3.org/2000/svg" xmlns:xlink="http://www.w3.org/1999/xlink" x="0px" y="0px"
	 width="1024px" height="1024px" viewBox="0 0 1024 1024" enable-background="new 0 0 1024 1024" xml:space="preserve">
<g>
	<g>
		<path fill-rule="evenodd" clip-rule="evenodd" fill="#535353" d="M602.287,377.654c-35.834-2.813-67.19,16.9-83.613,47.886
			c-2.988,5.633-10.447,5.633-13.435,0c-14.933-30.986-47.779-50.7-83.613-47.886c-41.81,4.23-76.147,40.843-77.637,84.499
			c0,29.576,11.945,56.333,34.337,74.643l134.38,109.846l134.373-109.846c20.908-16.9,34.344-45.066,32.853-74.643
			C678.434,418.497,644.097,381.884,602.287,377.654z M814.143,42H209.857c-74.166,0-134.286,60.12-134.286,134.286v671.429
			c0,74.159,60.12,134.286,134.286,134.286h604.286c74.166,0,134.286-60.126,134.286-134.286V176.286
			C948.429,102.12,888.309,42,814.143,42z M881.286,847.714c0,37.083-30.06,67.143-67.143,67.143H209.857
			c-37.083,0-67.143-30.06-67.143-67.143V176.286c0-37.083,30.06-67.143,67.143-67.143h604.286c37.083,0,67.143,30.06,67.143,67.143
			V847.714z"/>
	</g>
</g>
</svg>
