<?xml version="1.0" encoding="utf-8"?>
<!-- Generator: Adobe Illustrator 17.0.0, SVG Export Plug-In . SVG Version: 6.00 Build 0)  -->
<!DOCTYPE svg PUBLIC "-//W3C//DTD SVG 1.1//EN" "http://www.w3.org/Graphics/SVG/1.1/DTD/svg11.dtd">
<svg version="1.1" id="图形" xmlns="http://www.w3.org/2000/svg" xmlns:xlink="http://www.w3.org/1999/xlink" x="0px" y="0px"
	 width="1024px" height="1024px" viewBox="0 0 1024 1024" enable-background="new 0 0 1024 1024" xml:space="preserve">
<g>
	<path fill="#535353" d="M908.062,109.582c2.354,0,4.659,0.03,6.921,0.091c0.036,2.112,0.013,4.186-0.078,6.213l-0.022,0.478
		l-0.015,0.478c-1.186,38.246-5.976,77.117-14.24,115.534c-7.99,37.147-19.494,75.115-34.179,112.813
		c-17.393,44.572-38.735,85.908-63.431,122.859c-25.496,38.147-55.499,73.01-89.175,103.618l-0.086,0.078l-0.085,0.078
		c-21.633,19.799-31.848,46.835-28.778,76.146c1.229,12.08,2.384,24.496,3.5,36.505c1.259,13.544,2.561,27.548,4.006,41.494
		c3.856,37.138-7.447,63.019-36.647,83.916v0c-43.569,31.111-90.048,61.131-134.997,90.163c-1.364,0.881-2.728,1.762-4.092,2.643
		c-3.069-35.157-5.758-71.296-8.695-112.85l-0.132-1.901c-0.463-6.692-0.901-13.012-2.106-19.694
		c-2.918-16.176-9.737-29.987-20.266-41.048c-10.361-10.884-23.626-18.349-39.427-22.188c-6.851-1.665-13.506-2.524-19.944-3.351
		c-41.616-5.488-70.76-23.605-91.716-57.013l-0.026-0.041l-0.026-0.041c-9.872-15.686-15.707-34.393-17.837-57.188l-0.007-0.075
		l-0.007-0.075c-2.685-28.044-16.302-44.934-27.252-54.164c-13.214-11.139-29.725-17.34-49.073-18.433l-0.071-0.004l-0.071-0.004
		c-36.252-1.97-77.929-4.335-120.07-7.277c6.168-9.674,12.507-19.406,19.066-29.476c5.05-7.753,10.271-15.77,15.409-23.761
		l0.037-0.058l0.038-0.059c6.453-10.083,12.885-20.17,19.316-30.254c10.269-16.104,20.889-32.757,31.358-49.018
		c9.692-15.045,20.993-26.294,33.588-33.433c12.566-7.122,26.964-10.658,44.017-10.809c0.472-0.003,0.948-0.005,1.42-0.005
		c19.133,0,39.814,2.582,61.709,5.317c9.053,1.131,18.414,2.299,27.91,3.312c3.681,0.402,7.162,0.598,10.632,0.598
		c23.662,0,45.428-9.701,61.261-27.286c32.851-36.44,71.064-68.656,113.579-95.752c40.502-25.813,86.547-48.027,136.813-66.009
		c55.235-19.716,112.679-32.721,170.692-38.651c16.227-1.648,29.342-2.416,41.276-2.416H908.062 M710.038,450.846
		c35.93,0,69.754-13.772,95.242-38.778c25.616-25.133,39.967-58.798,40.408-94.794l0.009-0.71l-0.006-0.71
		c-0.067-7.5-1.369-34.173-15.306-62.516c-22.002-44.745-64.355-70.923-116.2-71.823l-0.065-0.001l-0.064-0.001
		c-0.74-0.011-1.488-0.018-2.225-0.018c-35.467,0-68.874,13.074-94.065,36.813c-26.414,24.891-41.405,59.364-42.212,97.107
		c-0.372,17.939,3.094,35.589,10.302,52.461c6.549,15.328,15.88,29.278,27.733,41.463c25.422,26.133,60.203,41.26,95.391,41.502
		C709.33,450.845,709.686,450.846,710.038,450.846 M188.682,803.775c8.033,9.029,16.657,17.586,25.843,25.648
		c-8.923,0.99-16.253,3.402-22.423,5.448c-4.379,1.43-8.77,2.869-13.16,4.311c1.429-4.251,2.858-8.516,4.275-12.765
		c1.64-4.866,3.203-9.7,4.331-15.286C188.056,808.614,188.429,806.16,188.682,803.775 M908.057,42.582
		c-16.02,0-32.052,1.135-48.043,2.759c-63.794,6.52-125.99,20.628-186.446,42.208c-106.906,38.244-201.349,95.382-277.632,180.001
		c-3.464,3.847-7.002,5.148-11.498,5.148c-1.09,0-2.238-0.077-3.453-0.212c-32.227-3.435-64.579-9.015-96.798-9.015
		c-0.625,0-1.256,0.002-1.881,0.006c-57.444,0.469-102.316,26.597-133.469,74.958c-17.011,26.421-33.824,52.943-50.781,79.438
		c-15.767,24.524-32.03,48.816-47.279,73.673c-21.695,35.361-1.136,77.766,39.352,80.812c48.714,3.671,97.462,6.513,146.244,9.165
		c8.791,0.496,12.524,2.856,13.408,12.088c2.883,30.84,11.15,60.116,27.841,86.638c32.349,51.569,79.561,79.927,139.819,87.848
		c22.715,2.917,22.062,3.148,23.694,26.427c3.284,46.464,6.724,92.995,11.082,139.357c2.753,28.955,25.197,47.537,50.33,47.537
		c9.939,0,20.298-2.906,30.026-9.226c54.479-35.3,109.401-70.137,162.174-107.823c49.183-35.198,70.586-84.741,64.297-145.319
		c-2.692-25.965-4.854-51.964-7.506-77.997c-0.857-8.023,1.115-14.081,7.37-19.805c77.242-70.205,132.279-155.144,169.958-251.701
		c31.431-80.689,50.284-163.982,52.97-250.627c0.782-17.256-1.339-34.348-4.032-51.311c-2.726-16.963-3.597-17.65-21.111-20.859
		C940.52,43.747,924.294,42.582,908.057,42.582L908.057,42.582z M710.038,383.846c-0.188,0-0.377-0.001-0.565-0.002
		c-35.667-0.245-67.662-31.989-66.935-67.037c0.888-41.551,32.484-68.311,69.292-68.311c0.395,0,0.796,0.003,1.192,0.009
		c65.072,1.129,65.671,67.948,65.671,67.948C778.232,354.034,747.81,383.846,710.038,383.846L710.038,383.846z M162.953,658.511
		c-6.155,0-11.781,2.873-16.571,7.657c-26.624,26.359-53.242,52.719-79.758,79.18c-8.104,8.084-10.885,17.643-6.568,28.644
		c4.494,11.361,13.02,17.099,25.088,17.65c8.261,0.401,16.548,0.299,24.782,0.401c13.741,0.224,13.999,0.517,9.77,13.061
		c-9.702,29.079-19.642,57.987-29.147,87.128c-4.848,14.869-0.299,27.046,11.803,33.791c3.989,2.255,8.025,3.146,12.085,3.146
		c4.313,0,8.653-1.006,12.989-2.453c28.528-9.335,57.022-18.867,85.598-28.195c4.714-1.562,7.779-2.557,9.788-2.556
		c3.681,0,3.81,3.34,4.021,12.639c0.191,7.86,0,15.719,0.394,23.51c0.591,12.381,6.391,21.124,18.391,25.611
		c3.281,1.21,6.365,1.771,9.287,1.771c7.59,0,14.095-3.79,20.152-9.862c25.442-25.441,51.107-50.591,76.481-76.032
		c17.147-17.194,11.871-39.556-11.239-47.415c-12.857-4.351-25.312-9.621-37.115-16.073c-53.528-29.534-90.418-73.02-110.74-130.389
		c-5.154-14.604-13.149-20.954-27.603-21.124C164.207,658.54,163.578,658.511,162.953,658.511L162.953,658.511z"/>
</g>
<g opacity="0.3">
	<path fill="#535353" d="M981.836,118.919c-2.686,86.645-21.539,169.938-52.97,250.627
		c-37.679,96.558-92.716,181.496-169.958,251.701c-6.255,5.725-8.227,11.782-7.37,19.805c2.652,26.033,4.814,52.032,7.506,77.997
		c6.289,60.578-15.114,110.121-64.297,145.319c-52.773,37.686-107.694,72.524-162.174,107.823
		c-34.328,22.3-76.515,2.094-80.356-38.312c-4.358-46.362-7.798-92.893-11.082-139.357c-1.632-23.279-0.979-23.51-23.694-26.427
		c-60.259-7.921-107.47-36.279-139.819-87.848c-16.691-26.522-24.959-55.798-27.841-86.638c-0.884-9.233-4.616-11.592-13.407-12.088
		c-48.782-2.652-97.53-5.494-146.244-9.165c-40.487-3.046-61.047-45.451-39.352-80.811c15.25-24.857,31.513-49.149,47.279-73.673
		c16.956-26.495,33.77-53.018,50.781-79.438c31.152-48.36,76.025-74.489,133.469-74.958c32.839-0.224,65.827,5.507,98.679,9.009
		c6.228,0.693,10.647-0.156,14.951-4.936c76.283-84.619,170.727-141.757,277.632-180c60.456-21.58,122.652-35.687,186.446-42.207
		c32.2-3.27,64.549-4.555,96.68,1.407c17.514,3.209,18.384,3.896,21.111,20.859C980.496,84.571,982.618,101.663,981.836,118.919
		L981.836,118.919z M164.842,658.6c14.454,0.17,22.45,6.52,27.603,21.124c20.322,57.369,57.213,100.855,110.74,130.389
		c11.803,6.452,24.258,11.721,37.115,16.073c23.109,7.859,28.385,30.221,11.239,47.415c-25.373,25.441-51.039,50.59-76.481,76.032
		c-8.39,8.41-17.636,12.442-29.439,8.091c-12-4.487-17.799-13.231-18.391-25.611c-0.394-7.792-0.204-15.651-0.394-23.51
		c-0.326-14.373-0.456-14.509-13.809-10.083c-28.576,9.328-57.07,18.86-85.598,28.195c-8.417,2.808-16.848,3.957-25.074-0.693
		c-12.102-6.745-16.65-18.921-11.803-33.79c9.505-29.14,19.445-58.049,29.147-87.128c4.229-12.544,3.971-12.836-9.77-13.061
		c-8.233-0.102-16.521,0-24.782-0.401c-12.068-0.551-20.594-6.289-25.088-17.65c-4.317-11.001-1.537-20.56,6.568-28.644
		c26.516-26.461,53.133-52.821,79.758-79.18C151.659,660.898,157.948,657.948,164.842,658.6L164.842,658.6z"/>
</g>
</svg>
