<?xml version="1.0" encoding="utf-8"?>
<!-- Generator: Adobe Illustrator 17.0.0, SVG Export Plug-In . SVG Version: 6.00 Build 0)  -->
<!DOCTYPE svg PUBLIC "-//W3C//DTD SVG 1.1//EN" "http://www.w3.org/Graphics/SVG/1.1/DTD/svg11.dtd">
<svg version="1.1" id="图形" xmlns="http://www.w3.org/2000/svg" xmlns:xlink="http://www.w3.org/1999/xlink" x="0px" y="0px"
	 width="1024px" height="1024px" viewBox="0 0 1024 1024" enable-background="new 0 0 1024 1024" xml:space="preserve">
<g>
	<g>
		<g>
			<path fill="#535353" d="M427.802,109c8.599,0,16.32,3.213,22.359,9.321l447.938,452.509l0.119,0.121l0.12,0.12
				c12.189,12.189,14.372,20.615,14.289,22.203c-0.417,6.566-1.322,11.346-2.766,14.614c-0.799,1.808-2.447,4.798-7.511,9.862
				c-10.607,10.607-283.802,283.902-286.56,286.661l-0.129,0.128l-0.128,0.129c-6.619,6.694-14.926,10.267-24.06,10.333
				l-0.218,0.001c-8.604,0-16.346-3.229-22.402-9.349L120.925,453.157c-6.818-6.89-10.256-16.613-9.432-26.677h0l21.742-262.556
				c0.919-11.085,6.094-18.448,10.274-22.673c4.071-4.115,11.124-9.208,21.595-10.097l259.795-22.037
				C425.872,109.039,426.848,109,427.802,109 M427.802,42c-2.815,0-5.649,0.116-8.498,0.351L159.441,64.394
				c-49.699,4.22-88.811,43.749-92.977,93.994L44.717,421.011c-2.423,29.581,8.003,58.476,28.585,79.274L521.24,952.787
				c18.651,18.852,43.496,29.214,70.018,29.214c0.248,0,0.493-0.001,0.742-0.003c26.822-0.195,52.102-10.931,71.177-30.221
				c0,0,275.826-275.927,286.551-286.652c19.275-19.275,27.925-38.625,29.766-67.605c1.589-25.021-10.907-50.955-33.778-73.826
				L497.777,71.185C479.15,52.345,454.344,42,427.802,42L427.802,42z"/>
		</g>
	</g>
</g>
<g>
	<g>
		<path fill="#535353" d="M310.539,241c-37.146,0.269-67.461,30.974-67.717,68.599c-0.242,37.624,29.662,67.899,66.808,67.636
			c37.153-0.269,67.461-30.981,67.71-68.599C377.59,271.005,347.692,240.73,310.539,241z"/>
	</g>
</g>
</svg>
