<?xml version="1.0" encoding="utf-8"?>
<!-- Generator: Adobe Illustrator 17.0.0, SVG Export Plug-In . SVG Version: 6.00 Build 0)  -->
<!DOCTYPE svg PUBLIC "-//W3C//DTD SVG 1.1//EN" "http://www.w3.org/Graphics/SVG/1.1/DTD/svg11.dtd">
<svg version="1.1" id="图形" xmlns="http://www.w3.org/2000/svg" xmlns:xlink="http://www.w3.org/1999/xlink" x="0px" y="0px"
	 width="1024px" height="1024px" viewBox="0 0 1024 1024" enable-background="new 0 0 1024 1024" xml:space="preserve">
<path fill-rule="evenodd" clip-rule="evenodd" fill="#535353" d="M209.857,277h201.429c18.538,0,33.571,15.033,33.571,33.571
	c0,18.538-15.033,33.571-33.571,33.571H209.857c-18.538,0-33.571-15.033-33.571-33.571C176.286,292.033,191.319,277,209.857,277z"/>
<path fill-rule="evenodd" clip-rule="evenodd" fill="#535353" d="M612.714,277h201.429c18.538,0,33.571,15.033,33.571,33.571
	c0,18.538-15.033,33.571-33.571,33.571H612.714c-18.538,0-33.571-15.033-33.571-33.571C579.143,292.033,594.176,277,612.714,277z"/>
<path fill-rule="evenodd" clip-rule="evenodd" fill="#535353" d="M209.857,478.429h201.429c18.538,0,33.571,15.033,33.571,33.571
	s-15.033,33.571-33.571,33.571H209.857c-18.538,0-33.571-15.033-33.571-33.571S191.319,478.429,209.857,478.429z"/>
<path fill-rule="evenodd" clip-rule="evenodd" fill="#535353" d="M612.714,478.429h201.429c18.538,0,33.571,15.033,33.571,33.571
	s-15.033,33.571-33.571,33.571H612.714c-18.538,0-33.571-15.033-33.571-33.571S594.176,478.429,612.714,478.429z"/>
<path fill-rule="evenodd" clip-rule="evenodd" fill="#535353" d="M209.857,679.857h201.429c18.538,0,33.571,15.033,33.571,33.571
	S429.824,747,411.286,747H209.857c-18.538,0-33.571-15.033-33.571-33.571S191.319,679.857,209.857,679.857z"/>
<path fill-rule="evenodd" clip-rule="evenodd" fill="#535353" d="M612.714,679.857h201.429c18.538,0,33.571,15.033,33.571,33.571
	S832.681,747,814.143,747H612.714c-18.538,0-33.571-15.033-33.571-33.571S594.176,679.857,612.714,679.857z"/>
<g>
	<path fill="#535353" d="M886.08,142.571c15.947,0,28.92,13.859,28.92,30.894v677.028c0,17.057-12.974,30.935-28.92,30.935H137.934
		c-15.954,0-28.934-13.877-28.934-30.935V173.466c0-17.035,12.979-30.894,28.934-30.894H886.08 M886.08,75.571H137.934
		C84.944,75.571,42,119.342,42,173.466v677.028c0,54.104,42.944,97.935,95.934,97.935H886.08c52.969,0,95.92-43.831,95.92-97.935
		V173.466C982,119.342,939.049,75.571,886.08,75.571L886.08,75.571z"/>
</g>
</svg>
