<?xml version="1.0" encoding="utf-8"?>
<!-- Generator: Adobe Illustrator 17.0.0, SVG Export Plug-In . SVG Version: 6.00 Build 0)  -->
<!DOCTYPE svg PUBLIC "-//W3C//DTD SVG 1.1//EN" "http://www.w3.org/Graphics/SVG/1.1/DTD/svg11.dtd">
<svg version="1.1" id="图形" xmlns="http://www.w3.org/2000/svg" xmlns:xlink="http://www.w3.org/1999/xlink" x="0px" y="0px"
	 width="1024px" height="1024px" viewBox="0 0 1024 1024" enable-background="new 0 0 1024 1024" xml:space="preserve">
<path fill="#535353" d="M847.715,209.859c-85.13,0-198.043,0-268.576,0c-80.813,0-49.101-134.285-201.42-134.285H176.278
	C96.264,75.575,42,124.461,42,209.859v604.281c0,77.435,55.48,134.285,134.278,134.285h671.437
	c79.591,0,134.285-59.884,134.285-134.285V344.144C982,267.199,922.425,209.859,847.715,209.859z M109.142,411.286v-67.142V209.859
	c0-34.672,31.06-67.142,67.136-67.142h201.441c40.494,0,67.136,30.066,81.679,56.131c24.896,43.515,49.376,77.67,119.742,78.154
	h268.576c36.499,0,67.136,39.789,67.136,67.142v67.142v67.142v335.712c0,38.694-32.906,66.733-67.136,67.142H176.278
	c-33.014,0-67.136-30.906-67.136-67.142V478.429V411.286z"/>
</svg>
