<?xml version="1.0" encoding="utf-8"?>
<!-- Generator: Adobe Illustrator 17.0.0, SVG Export Plug-In . SVG Version: 6.00 Build 0)  -->
<!DOCTYPE svg PUBLIC "-//W3C//DTD SVG 1.1//EN" "http://www.w3.org/Graphics/SVG/1.1/DTD/svg11.dtd">
<svg version="1.1" id="图形" xmlns="http://www.w3.org/2000/svg" xmlns:xlink="http://www.w3.org/1999/xlink" x="0px" y="0px"
	 width="1024px" height="1024px" viewBox="0 0 1024 1024" enable-background="new 0 0 1024 1024" xml:space="preserve">
<g>
	<g>
		<path fill-rule="evenodd" clip-rule="evenodd" fill="#535353" d="M847.714,645.786h-33.571v-67.143c0,0,0-53.103,0-201.429
			c0-138.237-117.504-252.065-268.571-266.913v-35.23c0-18.538-15.033-33.571-33.571-33.571s-33.571,15.033-33.571,33.571v35.23
			c-151.068,14.847-268.571,128.676-268.571,266.913c0,148.325,0,201.429,0,201.429v67.143h-33.571
			c-55.621,0-100.714,45.093-100.714,100.714s45.093,100.714,100.714,100.714h167.857c0,57.38,75.153,134.286,167.857,134.286
			s167.857-76.905,167.857-134.286h167.857c55.621,0,100.714-45.093,100.714-100.714S903.335,645.786,847.714,645.786z M512,914.357
			c-55.621,0-100.714-35.237-100.714-67.143h201.429C612.714,879.121,567.621,914.357,512,914.357z M847.714,780.071H176.286
			c-18.538,0-33.571-15.033-33.571-33.571s15.033-33.571,33.571-33.571H277v-67.143c0,0,0-92.201,0-268.571
			c0-111.249,105.213-201.429,235-201.429s235,90.18,235,201.429c0,140.208,0,268.571,0,268.571v67.143h100.714
			c18.538,0,33.571,15.033,33.571,33.571S866.252,780.071,847.714,780.071z"/>
	</g>
</g>
<g opacity="0.3">
	<g>
		<path fill-rule="evenodd" clip-rule="evenodd" fill="#535353" d="M847.714,712.929H747v-67.143c0,0,0-128.364,0-268.571
			c0-111.249-105.213-201.429-235-201.429s-235,90.18-235,201.429c0,176.371,0,268.571,0,268.571v67.143H176.286
			c-18.538,0-33.571,15.033-33.571,33.571s15.033,33.571,33.571,33.571h671.429c18.538,0,33.571-15.033,33.571-33.571
			S866.252,712.929,847.714,712.929z M512,914.357c55.621,0,100.714-35.237,100.714-67.143H411.286
			C411.286,879.121,456.379,914.357,512,914.357z"/>
	</g>
</g>
</svg>
