<?xml version="1.0" encoding="utf-8"?>
<!-- Generator: Adobe Illustrator 17.0.0, SVG Export Plug-In . SVG Version: 6.00 Build 0)  -->
<!DOCTYPE svg PUBLIC "-//W3C//DTD SVG 1.1//EN" "http://www.w3.org/Graphics/SVG/1.1/DTD/svg11.dtd">
<svg version="1.1" id="图形" xmlns="http://www.w3.org/2000/svg" xmlns:xlink="http://www.w3.org/1999/xlink" x="0px" y="0px"
	 width="1024px" height="1024px" viewBox="0 0 1024 1024" enable-background="new 0 0 1024 1024" xml:space="preserve">
<g>
	<g>
		<path fill-rule="evenodd" clip-rule="evenodd" fill="#535353" d="M747,310.571H277c-18.538,0-33.571,15.033-33.571,33.571
			s15.033,33.571,33.571,33.571h470c18.538,0,33.571-15.033,33.571-33.571S765.538,310.571,747,310.571z M847.714,42H176.286
			C102.12,42,42,102.12,42,176.286v470c0,74.166,60.12,134.286,134.286,134.286h67.143V982L512,780.571h335.714
			c74.166,0,134.286-60.12,134.286-134.286v-470C982,102.12,921.88,42,847.714,42z M914.857,646.286
			c0,37.083-30.06,67.143-67.143,67.143H482.625L310.571,847.714V713.429H176.286c-37.083,0-67.143-30.06-67.143-67.143v-470
			c0-37.083,30.06-67.143,67.143-67.143h671.429c37.083,0,67.143,30.06,67.143,67.143V646.286z M612.714,444.857H277
			c-18.538,0-33.571,15.033-33.571,33.571S258.462,512,277,512h335.714c18.538,0,33.571-15.033,33.571-33.571
			S631.252,444.857,612.714,444.857z"/>
	</g>
</g>
</svg>
