<?xml version="1.0" encoding="utf-8"?>
<!-- Generator: Adobe Illustrator 17.0.0, SVG Export Plug-In . SVG Version: 6.00 Build 0)  -->
<!DOCTYPE svg PUBLIC "-//W3C//DTD SVG 1.1//EN" "http://www.w3.org/Graphics/SVG/1.1/DTD/svg11.dtd">
<svg version="1.1" id="图形" xmlns="http://www.w3.org/2000/svg" xmlns:xlink="http://www.w3.org/1999/xlink" x="0px" y="0px"
	 width="1024px" height="1024px" viewBox="0 0 1024 1024" enable-background="new 0 0 1024 1024" xml:space="preserve">
<g>
	<g>
		<path fill-rule="evenodd" clip-rule="evenodd" fill="#848484" d="M37,358.797h459.609v-38.301H37V358.797z M37,473.699h459.609
			v-38.301H37V473.699z M37,588.602h459.609v-38.301H37V588.602z M37,703.504h459.609v-38.301H37V703.504z M981.39,440.715
			c-7.48-7.48-19.602-7.48-27.082,0l-94.789,94.789l-94.792-94.789c-7.476-7.48-19.602-7.48-27.083,0
			c-7.476,7.476-7.476,19.602,0,27.082l108.334,108.33c7.476,7.48,19.602,7.48,27.083,0l108.33-108.33
			C988.87,460.317,988.87,448.191,981.39,440.715z"/>
	</g>
</g>
</svg>
