<?xml version="1.0" encoding="utf-8"?>
<!-- Generator: Adobe Illustrator 17.0.0, SVG Export Plug-In . SVG Version: 6.00 Build 0)  -->
<!DOCTYPE svg PUBLIC "-//W3C//DTD SVG 1.1//EN" "http://www.w3.org/Graphics/SVG/1.1/DTD/svg11.dtd">
<svg version="1.1" id="图形" xmlns="http://www.w3.org/2000/svg" xmlns:xlink="http://www.w3.org/1999/xlink" x="0px" y="0px"
	 width="1024px" height="1024px" viewBox="0 0 1024 1024" enable-background="new 0 0 1024 1024" xml:space="preserve">
<g>
	<g>
		<path fill-rule="evenodd" clip-rule="evenodd" fill="#535353" d="M847.709,42H176.292C102.126,42,42,102.26,42,176.587v670.826
			C42,921.74,102.126,982,176.292,982h671.417C921.874,982,982,921.74,982,847.413V176.587C982,102.26,921.874,42,847.709,42z
			 M914.858,847.715c0,37.083-30.06,67.142-67.142,67.142H176.292c-37.083,0-67.142-30.06-67.142-67.142V176.291
			c0-37.083,30.06-67.142,67.142-67.142h671.424c37.083,0,67.142,30.06,67.142,67.142V847.715z M814.144,176.291h-268.57
			c-18.538,0-33.571,15.033-33.571,33.571s15.033,33.571,33.571,33.571H728.9L243.434,728.9V545.575
			c0-18.538-15.033-33.571-33.571-33.571s-33.571,15.033-33.571,33.571v268.57c0,18.538,15.033,33.571,33.571,33.571h268.57
			c18.538,0,33.571-15.033,33.571-33.571s-15.033-33.571-33.571-33.571H286.714l493.859-493.859v191.718
			c0,18.538,15.033,33.571,33.571,33.571s33.571-15.033,33.571-33.571v-268.57C847.715,191.325,832.682,176.291,814.144,176.291z"/>
	</g>
</g>
</svg>
