<?xml version="1.0" encoding="utf-8"?>
<!-- Generator: Adobe Illustrator 17.0.0, SVG Export Plug-In . SVG Version: 6.00 Build 0)  -->
<!DOCTYPE svg PUBLIC "-//W3C//DTD SVG 1.1//EN" "http://www.w3.org/Graphics/SVG/1.1/DTD/svg11.dtd">
<svg version="1.1" id="图形" xmlns="http://www.w3.org/2000/svg" xmlns:xlink="http://www.w3.org/1999/xlink" x="0px" y="0px"
	 width="1024px" height="1024px" viewBox="0 0 1024 1024" enable-background="new 0 0 1024 1024" xml:space="preserve">
<g>
	<g>
		<path fill-rule="evenodd" clip-rule="evenodd" fill="#535353" d="M396.426,206.375c10.661-7.989,80.751-73.742,80.751-73.742
			v482.833c0,15.119,16.012,30.184,33.662,30.184c17.663,0,33.675-15.065,33.675-30.184V132.633c0,0,78.079,69.526,81.805,74.735
			c31.527,28.21,73.272-9.211,40.355-40.483L537.78,52.493c-15.864-13.991-38.012-13.991-53.876,0
			c0.121-0.074-96.434,88.485-127.37,114.473C320.14,200.01,366.282,235.451,396.426,206.375z M746.975,310.643H646.271
			c-18.536,0-33.568,15.025-33.568,33.568c0,18.543,15.032,33.568,33.568,33.568h100.704c37.079,0,67.136,30.057,67.136,67.136
			v402.814c0,37.079-30.057,67.136-67.136,67.136h-469.95c-37.079,0-67.136-30.057-67.136-67.136V444.915
			c0-37.079,30.057-67.136,67.136-67.136h100.703c18.536,0,33.568-15.025,33.568-33.568c0-18.543-15.032-33.568-33.568-33.568
			H277.025c-74.158,0-134.271,60.113-134.271,134.271v402.814c0,74.158,60.113,134.271,134.271,134.271h469.95
			c74.158,0,134.271-60.113,134.271-134.271V444.915C881.246,370.757,821.133,310.643,746.975,310.643z"/>
	</g>
</g>
</svg>
