<?xml version="1.0" encoding="utf-8"?>
<!-- Generator: Adobe Illustrator 17.0.0, SVG Export Plug-In . SVG Version: 6.00 Build 0)  -->
<!DOCTYPE svg PUBLIC "-//W3C//DTD SVG 1.1//EN" "http://www.w3.org/Graphics/SVG/1.1/DTD/svg11.dtd">
<svg version="1.1" id="图形" xmlns="http://www.w3.org/2000/svg" xmlns:xlink="http://www.w3.org/1999/xlink" x="0px" y="0px"
	 width="1024px" height="1024px" viewBox="0 0 1024 1024" enable-background="new 0 0 1024 1024" xml:space="preserve">
<g>
	<g>
		<path fill-rule="evenodd" clip-rule="evenodd" fill="#535353" d="M669.5,590.083h-78.333c-21.628,0-39.167,17.539-39.167,39.167
			v78.333c0,21.628,17.539,39.167,39.167,39.167H669.5c21.628,0,39.167-17.539,39.167-39.167V629.25
			C708.667,607.622,691.128,590.083,669.5,590.083z M865.333,355.083H473.667V198.417c0-86.527-70.14-156.667-156.667-156.667
			H160.333c-86.527,0-156.667,70.14-156.667,156.667v156.667H82V198.417c0-43.263,35.07-78.333,78.333-78.333H317
			c43.263,0,78.333,35.07,78.333,78.333v156.667c-86.527,0-156.667,70.14-156.667,156.667v313.333
			c0,86.527,70.14,156.667,156.667,156.667h470c86.527,0,156.667-70.14,156.667-156.667V511.75
			C1022,425.223,951.86,355.083,865.333,355.083z M943.667,825.083c0,43.263-35.07,78.333-78.333,78.333h-470
			c-43.263,0-78.333-35.07-78.333-78.333V511.75c0-43.263,35.07-78.333,78.333-78.333h470c43.263,0,78.333,35.07,78.333,78.333
			V825.083z"/>
	</g>
</g>
</svg>
