<?xml version="1.0" encoding="utf-8"?>
<!-- Generator: Adobe Illustrator 17.0.0, SVG Export Plug-In . SVG Version: 6.00 Build 0)  -->
<!DOCTYPE svg PUBLIC "-//W3C//DTD SVG 1.1//EN" "http://www.w3.org/Graphics/SVG/1.1/DTD/svg11.dtd">
<svg version="1.1" id="图形" xmlns="http://www.w3.org/2000/svg" xmlns:xlink="http://www.w3.org/1999/xlink" x="0px" y="0px"
	 width="1024px" height="1024px" viewBox="0 0 1024 1024" enable-background="new 0 0 1024 1024" xml:space="preserve">
<g>
	<g>
		<path fill="#535353" d="M747,355.332V198.666c0-86.527-70.14-156.667-156.667-156.667H433.667
			C347.14,41.999,277,112.139,277,198.666v156.667c-86.527,0-156.667,70.14-156.667,156.667v313.333
			C120.333,911.86,190.473,982,277,982h470c86.527,0,156.667-70.14,156.667-156.667V511.999
			C903.667,425.472,833.527,355.332,747,355.332z M355.334,276.999v-78.333c0-43.263,35.07-78.333,78.333-78.333h156.667
			c43.263,0,78.333,35.07,78.333,78.333v78.333c0,43.263,0,78.333,0,78.333H355.334
			C355.334,355.332,355.334,320.262,355.334,276.999z"/>
	</g>
</g>
</svg>
