<?xml version="1.0" encoding="utf-8"?>
<!-- Generator: Adobe Illustrator 17.0.0, SVG Export Plug-In . SVG Version: 6.00 Build 0)  -->
<!DOCTYPE svg PUBLIC "-//W3C//DTD SVG 1.1//EN" "http://www.w3.org/Graphics/SVG/1.1/DTD/svg11.dtd">
<svg version="1.1" id="图形" xmlns="http://www.w3.org/2000/svg" xmlns:xlink="http://www.w3.org/1999/xlink" x="0px" y="0px"
	 width="1024px" height="1024px" viewBox="0 0 1024 1024" enable-background="new 0 0 1024 1024" xml:space="preserve">
<g>
	<g>
		<path fill-rule="evenodd" clip-rule="evenodd" fill="#535353" d="M847.714,42H176.286C102.12,42,42,102.12,42,176.286v671.429
			C42,921.88,102.12,982,176.286,982h671.429C921.88,982,982,921.88,982,847.714V176.286C982,102.12,921.88,42,847.714,42z
			 M914.857,847.714c0,37.083-30.06,67.143-67.143,67.143H176.286c-37.083,0-67.143-30.06-67.143-67.143V176.286
			c0-37.083,30.06-67.143,67.143-67.143h671.429c37.083,0,67.143,30.06,67.143,67.143V847.714z"/>
	</g>
</g>
<path fill-rule="evenodd" clip-rule="evenodd" fill="none" stroke="#535353" stroke-width="67" stroke-linecap="round" stroke-linejoin="round" stroke-miterlimit="10" d="
	M76.215,224.153L512,514.677l435.785-290.523"/>
</svg>
