<?xml version="1.0" encoding="utf-8"?>
<!-- Generator: Adobe Illustrator 17.0.0, SVG Export Plug-In . SVG Version: 6.00 Build 0)  -->
<!DOCTYPE svg PUBLIC "-//W3C//DTD SVG 1.1//EN" "http://www.w3.org/Graphics/SVG/1.1/DTD/svg11.dtd">
<svg version="1.1" id="图形" xmlns="http://www.w3.org/2000/svg" xmlns:xlink="http://www.w3.org/1999/xlink" x="0px" y="0px"
	 width="1024px" height="1024px" viewBox="0 0 1024 1024" enable-background="new 0 0 1024 1024" xml:space="preserve">
<g>
	<g>
		<path fill-rule="evenodd" clip-rule="evenodd" fill="#848484" d="M981.39,440.715c-7.48-7.48-19.602-7.48-27.082,0l-94.789,94.789
			l-94.792-94.789c-7.476-7.48-19.602-7.48-27.083,0c-7.476,7.476-7.476,19.602,0,27.082l108.334,108.33
			c7.476,7.48,19.602,7.48,27.083,0l108.33-108.33C988.87,460.317,988.87,448.191,981.39,440.715z"/>
	</g>
</g>
<g>
	<g>
		<path fill-rule="evenodd" clip-rule="evenodd" fill="#848484" d="M113.602,473.85h38.301c21.154,0,38.301-17.147,38.301-38.301
			v-38.301c0-21.154-17.147-38.301-38.301-38.301h-38.301c-21.154,0-38.301,17.147-38.301,38.301v38.301
			C75.301,456.702,92.448,473.85,113.602,473.85z M132.752,397.248c10.575,0,19.15,8.576,19.15,19.15s-8.576,19.15-19.15,19.15
			s-19.15-8.576-19.15-19.15S122.177,397.248,132.752,397.248z M305.105,473.85c21.154,0,38.301-17.147,38.301-38.301v-38.301
			c0-21.154-17.147-38.301-38.301-38.301h-38.301c-21.154,0-38.301,17.147-38.301,38.301v38.301
			c0,21.154,17.147,38.301,38.301,38.301H305.105z M285.955,397.248c10.575,0,19.15,8.576,19.15,19.15s-8.576,19.15-19.15,19.15
			c-10.575,0-19.15-8.576-19.15-19.15S275.38,397.248,285.955,397.248z M458.309,358.947h-38.301
			c-21.154,0-38.301,17.147-38.301,38.301v38.301c0,21.154,17.147,38.301,38.301,38.301h38.301
			c21.154,0,38.301-17.147,38.301-38.301v-38.301C496.609,376.095,479.462,358.947,458.309,358.947z M439.158,435.549
			c-10.575,0-19.15-8.576-19.15-19.15s8.576-19.15,19.15-19.15s19.15,8.576,19.15,19.15S449.733,435.549,439.158,435.549z
			 M151.902,588.752h-38.301c-21.154,0-38.301,17.147-38.301,38.301v38.301c0,21.154,17.147,38.301,38.301,38.301h38.301
			c21.154,0,38.301-17.147,38.301-38.301v-38.301C190.203,605.899,173.056,588.752,151.902,588.752z M132.752,665.353
			c-10.575,0-19.15-8.576-19.15-19.15c0-10.575,8.576-19.15,19.15-19.15s19.15,8.576,19.15,19.15
			C151.902,656.778,143.327,665.353,132.752,665.353z M305.105,588.752h-38.301c-21.154,0-38.301,17.147-38.301,38.301v38.301
			c0,21.154,17.147,38.301,38.301,38.301h38.301c21.154,0,38.301-17.147,38.301-38.301v-38.301
			C343.406,605.899,326.259,588.752,305.105,588.752z M285.955,665.353c-10.575,0-19.15-8.576-19.15-19.15
			c0-10.575,8.576-19.15,19.15-19.15c10.575,0,19.15,8.576,19.15,19.15C305.105,656.778,296.53,665.353,285.955,665.353z
			 M458.309,588.752h-38.301c-21.154,0-38.301,17.147-38.301,38.301v38.301c0,21.154,17.147,38.301,38.301,38.301h38.301
			c21.154,0,38.301-17.147,38.301-38.301v-38.301C496.609,605.899,479.462,588.752,458.309,588.752z M439.158,665.353
			c-10.575,0-19.15-8.576-19.15-19.15c0-10.575,8.576-19.15,19.15-19.15s19.15,8.576,19.15,19.15
			C458.309,656.778,449.733,665.353,439.158,665.353z M75.301,282.346v38.301h421.309v-38.301H75.301z M75.301,550.451h421.309
			V512.15H75.301V550.451z"/>
	</g>
</g>
</svg>
