<?xml version="1.0" encoding="utf-8"?>
<!-- Generator: Adobe Illustrator 17.0.0, SVG Export Plug-In . SVG Version: 6.00 Build 0)  -->
<!DOCTYPE svg PUBLIC "-//W3C//DTD SVG 1.1//EN" "http://www.w3.org/Graphics/SVG/1.1/DTD/svg11.dtd">
<svg version="1.1" id="图形" xmlns="http://www.w3.org/2000/svg" xmlns:xlink="http://www.w3.org/1999/xlink" x="0px" y="0px"
	 width="1024px" height="1024px" viewBox="0 0 1024 1024" enable-background="new 0 0 1024 1024" xml:space="preserve">
<g>
	<g>
		<path fill-rule="evenodd" clip-rule="evenodd" fill="#535353" d="M512,40.5C251.597,40.5,40.5,251.597,40.5,512
			S251.597,983.5,512,983.5S983.5,772.403,983.5,512S772.403,40.5,512,40.5z M512,916.143
			c-223.201,0-404.143-180.941-404.143-404.143S288.799,107.857,512,107.857S916.143,288.799,916.143,512
			S735.201,916.143,512,916.143z M512,242.571c-37.201,0-67.357,30.156-67.357,67.357s30.156,67.357,67.357,67.357
			s67.357-30.156,67.357-67.357S549.201,242.571,512,242.571z M512,444.643c-37.201,0-67.357,30.156-67.357,67.357v202.071
			c0,37.201,30.156,67.357,67.357,67.357s67.357-30.156,67.357-67.357V512C579.357,474.799,549.201,444.643,512,444.643z"/>
	</g>
</g>
</svg>
