<?xml version="1.0" encoding="utf-8"?>
<!-- Generator: Adobe Illustrator 17.0.0, SVG Export Plug-In . SVG Version: 6.00 Build 0)  -->
<!DOCTYPE svg PUBLIC "-//W3C//DTD SVG 1.1//EN" "http://www.w3.org/Graphics/SVG/1.1/DTD/svg11.dtd">
<svg version="1.1" id="图形" xmlns="http://www.w3.org/2000/svg" xmlns:xlink="http://www.w3.org/1999/xlink" x="0px" y="0px"
	 width="1024px" height="1024px" viewBox="0 0 1024 1024" enable-background="new 0 0 1024 1024" xml:space="preserve">
<path fill-rule="evenodd" clip-rule="evenodd" fill="#535353" d="M865.836,406.848c0,0,5.153-5.153-49.274,49.274L471.637,801.046
	c-54.427,54.427-143.083,54.014-198.022-0.925c-54.939-54.939-55.352-143.595-0.925-198.022l299.346-299.346
	c54.427-54.427,24.868-24.868,24.868-24.868c13.732-13.732,36.004-13.732,49.737,0c13.732,13.732,13.732,36.004,0,49.737
	c0,0,2.601-2.601-24.868,24.868L323.352,650.911c-27.47,27.47-27.47,72.004,0,99.474s72.004,27.47,99.474,0l298.421-298.421
	l49.737-49.737l49.737-49.737c54.939-54.939,54.939-144.008,0-198.947c-54.939-54.939-144.008-54.939-198.947,0l-99.474,99.474
	c-54.939,54.939-17.065,17.065-99.474,99.474L223.879,551.438c-82.409,82.409-82.409,216.012,0,298.421s216.012,82.409,298.421,0
	l198.947-198.947c82.409-82.409,74.605-74.605,74.605-74.605c13.732-13.732,36.004-13.732,49.737,0
	c13.732,13.732,13.732,36.004,0,49.737L572.036,899.595c-109.874,109.873-288.021,109.873-397.894,0s-109.873-288.021,0-397.894
	c0,0-32.672,32.672,49.737-49.737l348.157-348.157c82.409-82.409,216.012-82.409,298.421,0s82.409,216.012,0,298.421"/>
</svg>
