<?xml version="1.0" encoding="utf-8"?>
<!-- Generator: Adobe Illustrator 17.0.0, SVG Export Plug-In . SVG Version: 6.00 Build 0)  -->
<!DOCTYPE svg PUBLIC "-//W3C//DTD SVG 1.1//EN" "http://www.w3.org/Graphics/SVG/1.1/DTD/svg11.dtd">
<svg version="1.1" id="图形" xmlns="http://www.w3.org/2000/svg" xmlns:xlink="http://www.w3.org/1999/xlink" x="0px" y="0px"
	 width="1024px" height="1024px" viewBox="0 0 1024 1024" enable-background="new 0 0 1024 1024" xml:space="preserve">
<g>
	<g>
		<path fill-rule="evenodd" clip-rule="evenodd" fill="#535353" d="M512.001,42C252.428,42,42.003,252.424,42.003,512.003
			C42.003,771.569,252.428,982,512.001,982s469.997-210.431,469.997-469.997C981.997,252.424,771.573,42,512.001,42z
			 M512.008,914.71c-222.49,0-402.856-180.767-402.856-403.761c0-222.987,180.366-403.754,402.856-403.754
			s402.854,180.767,402.854,403.754C914.862,733.942,734.497,914.71,512.008,914.71z M714.864,480.949H547.008V245.427
			c0-18.585-15.033-33.645-33.571-33.645c-18.538,0-33.571,15.06-33.571,33.645v269.174c0,18.578,15.033,33.645,33.571,33.645
			h201.427c18.538,0,33.571-15.067,33.571-33.645C748.435,496.016,733.401,480.949,714.864,480.949z"/>
	</g>
</g>
</svg>
