<?xml version="1.0" encoding="utf-8"?>
<!-- Generator: Adobe Illustrator 17.0.0, SVG Export Plug-In . SVG Version: 6.00 Build 0)  -->
<!DOCTYPE svg PUBLIC "-//W3C//DTD SVG 1.1//EN" "http://www.w3.org/Graphics/SVG/1.1/DTD/svg11.dtd">
<svg version="1.1" id="图形" xmlns="http://www.w3.org/2000/svg" xmlns:xlink="http://www.w3.org/1999/xlink" x="0px" y="0px"
	 width="1024px" height="1024px" viewBox="0 0 1024 1024" enable-background="new 0 0 1024 1024" xml:space="preserve">
<g>
	<g>
		<path fill-rule="evenodd" clip-rule="evenodd" fill="#848484" d="M773.643,444.437H613.244l-1.006-319.779
			c0-45.649-44.567-82.658-99.522-82.658h-0.504c-54.962,0-99.516,37.008-99.516,82.658l-1.019,319.779H250.351
			c-59.289,0-107.364,43.754-107.364,97.735V982h738.026V542.172C881.013,488.191,832.945,444.437,773.643,444.437z M478.865,109.19
			h67.19v335.952h-67.19V109.19z M277.294,915.475h-67.19V781.094h67.19V915.475z M411.668,915.475h-67.184V781.094h67.188
			L411.668,915.475z M546.055,915.475h-67.19V781.094h67.19V915.475z M680.436,915.475h-67.19V781.094h67.19V915.475z
			 M814.817,915.475h-67.19V781.094h67.19V915.475z M814.817,713.904H210.104V512.333h604.713V713.904z"/>
	</g>
</g>
</svg>
