<?xml version="1.0" encoding="utf-8"?>
<!-- Generator: Adobe Illustrator 24.0.3, SVG Export Plug-In . SVG Version: 6.00 Build 0)  -->
<svg version="1.1" id="图层_1" xmlns="http://www.w3.org/2000/svg" xmlns:xlink="http://www.w3.org/1999/xlink" x="0px" y="0px"
	 viewBox="0 0 36 36" style="enable-background:new 0 0 36 36;" xml:space="preserve">
<style type="text/css">
	.st0{fill:#9B9B9B;}
</style>
<title>纯净阅读</title>
<desc>Created with Sketch.</desc>
<g>
	<g>
		<path class="st0" d="M22,13h5c0.6,0,1-0.4,1-1v-2c0-0.6-0.4-1-1-1h-5c-0.6,0-1,0.4-1,1v0.5c-4.2,0-8.5,1.9-9.7,5.5H9
			c-0.6,0-1,0.4-1,1v2c0,0.6,0.4,1,1,1h2.3c1.2,3.7,5.4,5.5,9.7,5.5V26c0,0.6,0.4,1,1,1h5c0.6,0,1-0.4,1-1v-2c0-0.6-0.4-1-1-1h-5
			c-0.6,0-1,0.4-1,1v0.5c-3.7,0-7.5-1.5-8.6-4.5H14c0.6,0,1-0.4,1-1v-0.5h6V19c0,0.6,0.4,1,1,1h5c0.6,0,1-0.4,1-1v-2
			c0-0.6-0.4-1-1-1h-5c-0.6,0-1,0.4-1,1v0.5h-6V17c0-0.6-0.4-1-1-1h-1.6c1.2-3,4.9-4.5,8.6-4.5V12C21,12.6,21.4,13,22,13z"/>
	</g>
</g>
</svg>
