<?xml version="1.0" encoding="utf-8"?>
<!-- Generator: Adobe Illustrator 24.0.3, SVG Export Plug-In . SVG Version: 6.00 Build 0)  -->
<svg version="1.1" id="图形" xmlns="http://www.w3.org/2000/svg" xmlns:xlink="http://www.w3.org/1999/xlink" x="0px" y="0px"
	 viewBox="0 0 1024 1024" style="enable-background:new 0 0 1024 1024;" xml:space="preserve">
<style type="text/css">
	.st0{fill-rule:evenodd;clip-rule:evenodd;fill:#848484;}
</style>
<g>
	<g>
		<path class="st0" d="M982.4,243.2c0-18.6-15-33.6-33.6-33.6H75.2c-18.6,0-33.6,15-33.6,33.6s15,33.6,33.6,33.6h873.6
			C967.3,276.8,982.4,261.8,982.4,243.2z M41.6,780.8c0,18.6,15,33.6,33.6,33.6h873.6c18.6,0,33.6-15,33.6-33.6
			c0-18.6-15-33.6-33.6-33.6H75.2C56.7,747.2,41.6,762.2,41.6,780.8z M41.6,512c0,18.6,15,33.6,33.6,33.6h470.4
			c18.6,0,33.6-15,33.6-33.6c0-18.6-15-33.6-33.6-33.6H75.2C56.7,478.4,41.6,493.4,41.6,512z M915.2,680V344L711.8,514.7
			C711.8,514.7,915.2,679.7,915.2,680z"/>
	</g>
</g>
</svg>
