<?xml version="1.0" encoding="utf-8"?>
<!-- Generator: Adobe Illustrator 24.0.3, SVG Export Plug-In . SVG Version: 6.00 Build 0)  -->
<svg version="1.1" id="图形" xmlns="http://www.w3.org/2000/svg" xmlns:xlink="http://www.w3.org/1999/xlink" x="0px" y="0px"
	 viewBox="0 0 1024 1024" style="enable-background:new 0 0 1024 1024;" xml:space="preserve">
<style type="text/css">
	.st0{fill-rule:evenodd;clip-rule:evenodd;fill:#848484;}
</style>
<g>
	<g>
		<path class="st0" d="M75.2,276.8h873.6c18.6,0,33.6-15,33.6-33.6s-15-33.6-33.6-33.6H75.2c-18.6,0-33.6,15-33.6,33.6
			S56.7,276.8,75.2,276.8z M948.8,747.2H75.2c-18.6,0-33.6,15-33.6,33.6c0,18.6,15,33.6,33.6,33.6h873.6c18.6,0,33.6-15,33.6-33.6
			C982.4,762.2,967.3,747.2,948.8,747.2z M948.8,478.4H478.4c-18.6,0-33.6,15-33.6,33.6c0,18.6,15,33.6,33.6,33.6h470.4
			c18.6,0,33.6-15,33.6-33.6C982.4,493.4,967.3,478.4,948.8,478.4z M312.2,514.7L108.8,344v336C108.8,679.7,312.2,514.7,312.2,514.7
			z"/>
	</g>
</g>
</svg>
