<?xml version="1.0" encoding="utf-8"?>
<!-- Generator: Adobe Illustrator 24.0.3, SVG Export Plug-In . SVG Version: 6.00 Build 0)  -->
<svg version="1.1" id="图形" xmlns="http://www.w3.org/2000/svg" xmlns:xlink="http://www.w3.org/1999/xlink" x="0px" y="0px"
	 viewBox="0 0 1024 1024" style="enable-background:new 0 0 1024 1024;" xml:space="preserve">
<style type="text/css">
	.st0{fill-rule:evenodd;clip-rule:evenodd;fill:#848484;}
</style>
<g>
	<g>
		<path class="st0" d="M646.3,209.9c0,37.1,30.1,67.1,67.1,67.1h201.4c37.1,0,67.1-30.1,67.1-67.1v-67.1c0-37.1-30.1-67.1-67.1-67.1
			H713.4c-37.1,0-67.1,30.1-67.1,67.1c-214.3,0-396,83-452.4,268.8c-16.5,0-84.8-0.2-84.8-0.2c-37.1,0-67.1,30.1-67.1,67.1v67.1
			c0,37.1,30.1,67.1,67.1,67.1h86.6C250.1,795,433.4,881.3,646.3,881.3c0,37.1,30.1,67.1,67.1,67.1h201.4
			c37.1,0,67.1-30.1,67.1-67.1v-67.1c0-37.1-30.1-67.1-67.1-67.1H713.4c-37.1,0-67.1,30.1-67.1,67.1
			c-175.4,0-331.3-56.2-379.9-201.4h44.2c37.1,0,67.1-30.1,67.1-67.1h268.6c0,37.1,30.1,67.1,67.1,67.1h201.4
			c37.1,0,67.1-30.1,67.1-67.1v-67.1c0-37.1-30.1-67.1-67.1-67.1H713.4c-37.1,0-67.1,30.1-67.1,67.1H377.7
			c0-37.1-30.1-67.1-67.1-67.1c0,0-26.8,0.2-46.9,0.4C312.2,270.2,466.2,209.9,646.3,209.9z M713.4,142.7h201.4v67.1H713.4V142.7z
			 M713.4,814.1h201.4v67.1H713.4V814.1z M713.4,478.4h201.4v67.1H713.4V478.4z M310.6,478.4v67.1H109.1v-67.1H310.6z"/>
	</g>
</g>
</svg>
