<?xml version="1.0" encoding="utf-8"?>
<!-- Generator: Adobe Illustrator 24.0.3, SVG Export Plug-In . SVG Version: 6.00 Build 0)  -->
<svg version="1.1" id="图形" xmlns="http://www.w3.org/2000/svg" xmlns:xlink="http://www.w3.org/1999/xlink" x="0px" y="0px"
	 viewBox="0 0 1024 1024" style="enable-background:new 0 0 1024 1024;" xml:space="preserve">
<style type="text/css">
	.st0{fill-rule:evenodd;clip-rule:evenodd;fill:#848484;}
</style>
<g>
	<g>
		<path class="st0" d="M881.3,142.7H142.7c-37.1,0-67.1,30.1-67.1,67.1v604.3c0,37.1,30.1,67.1,67.1,67.1H747l201.4-201.4v-470
			C948.4,172.8,918.4,142.7,881.3,142.7z M881.3,646.4L713.4,814.2H176.3c-18.5,0-33.6-15-33.6-33.6V243.4c0-18.5,15-33.6,33.6-33.6
			h671.4c18.5,0,33.6,15,33.6,33.6L881.3,646.4L881.3,646.4z M713.4,344.1H310.6c-18.5,0-33.6,15-33.6,33.6s15,33.6,33.6,33.6h402.9
			c18.5,0,33.6-15,33.6-33.6S732,344.1,713.4,344.1z M713.4,478.4H310.6c-18.5,0-33.6,15-33.6,33.6c0,18.5,15,33.6,33.6,33.6h402.9
			c18.5,0,33.6-15,33.6-33.6C747,493.5,732,478.4,713.4,478.4z M512,612.8H310.6c-18.5,0-33.6,15-33.6,33.6
			c0,18.5,15,33.6,33.6,33.6H512c18.5,0,33.6-15,33.6-33.6C545.6,627.8,530.5,612.8,512,612.8z"/>
	</g>
</g>
</svg>
