<?xml version="1.0" encoding="utf-8"?>
<!-- Generator: Adobe Illustrator 17.0.0, SVG Export Plug-In . SVG Version: 6.00 Build 0)  -->
<!DOCTYPE svg PUBLIC "-//W3C//DTD SVG 1.1//EN" "http://www.w3.org/Graphics/SVG/1.1/DTD/svg11.dtd">
<svg version="1.1" id="图形" xmlns="http://www.w3.org/2000/svg" xmlns:xlink="http://www.w3.org/1999/xlink" x="0px" y="0px"
	 width="1024px" height="1024px" viewBox="0 0 1024 1024" enable-background="new 0 0 1024 1024" xml:space="preserve">
<path fill-rule="evenodd" clip-rule="evenodd" fill="#535353" d="M504.844,534.75"/>
<g>
	<g>
		<path fill="#535353" d="M513.403,848.09c18.914,0,34.384-14.98,34.384-33.283V349.494c0-21.09-15.47-38.332-34.384-38.332
			c-18.907,0-34.384,17.242-34.384,38.332v465.313C479.019,833.111,494.495,848.09,513.403,848.09z M378.62,848.09
			c18.323,0,33.31-14.98,33.31-33.283V349.494c0-21.09-14.986-38.332-33.31-38.332c-18.33,0-33.316,17.242-33.316,38.332v465.313
			C345.304,833.111,360.29,848.09,378.62,848.09z M648.239,848.09c18.317,0,33.31-14.98,33.31-33.283V349.494
			c0-21.09-14.993-38.332-33.31-38.332c-18.323,0-33.31,17.242-33.31,38.332v465.313C614.929,833.111,629.916,848.09,648.239,848.09
			z M950.053,176.286H748.611v-67.143c0-32.84-29.764-67.143-67.136-67.143H345.767c-37.385,0-67.156,34.37-67.156,67.143v67.143
			H77.189c-44.167,0-45.328,67.143,0,67.143h67.136v671.429c0,35.686,30.516,67.143,67.15,67.143H815.76
			c34.921,0,67.136-31.456,67.136-67.143V243.429h67.156C990.453,243.429,990.506,176.286,950.053,176.286z M345.767,109.143
			h335.708v67.143H345.767V109.143z M815.76,914.857H211.475V243.429H815.76V914.857z"/>
	</g>
</g>
</svg>
