<?xml version="1.0" encoding="utf-8"?>
<!-- Generator: Adobe Illustrator 17.0.0, SVG Export Plug-In . SVG Version: 6.00 Build 0)  -->
<!DOCTYPE svg PUBLIC "-//W3C//DTD SVG 1.1//EN" "http://www.w3.org/Graphics/SVG/1.1/DTD/svg11.dtd">
<svg version="1.1" id="图形" xmlns="http://www.w3.org/2000/svg" xmlns:xlink="http://www.w3.org/1999/xlink" x="0px" y="0px"
	 width="1024px" height="1024px" viewBox="0 0 1024 1024" enable-background="new 0 0 1024 1024" xml:space="preserve">
<path fill="#535353" d="M322.83,455.949l-0.129,0.575c23.985-82.742,100.141-143.403,190.194-143.403
	c89.793,0,165.746,60.323,189.96,142.7l0.249-0.1c2.007,4.34,6.31,7.899,11.273,7.362c11.076-1.752,13.651-9.425,11.462-17.967
	c-28.341-91.031-112.932-157.118-212.944-157.118c-101.838,0-187.691,68.519-214.441,162.128l-31.482-8.912l25.022,74.972
	l63.729-49.85L322.83,455.949z M757.029,584.878l-25.022-74.971l-63.729,49.848l34.159,9.669
	c-24.618,81.729-100.21,141.453-189.542,141.453c-89.112,0-164.533-59.439-189.341-140.855l-0.051,0.011
	c-1.489-5.382-6.262-9.348-11.983-9.348c-13.554,0-12.511,15.196-12.511,15.196c27.393,92.583,112.775,160.117,213.886,160.117
	c100.967,0,186.256-67.336,213.777-159.715L757.029,584.878z"/>
</svg>
