<?xml version="1.0" encoding="utf-8"?>
<!-- Generator: Adobe Illustrator 17.0.0, SVG Export Plug-In . SVG Version: 6.00 Build 0)  -->
<!DOCTYPE svg PUBLIC "-//W3C//DTD SVG 1.1//EN" "http://www.w3.org/Graphics/SVG/1.1/DTD/svg11.dtd">
<svg version="1.1" id="图形" xmlns="http://www.w3.org/2000/svg" xmlns:xlink="http://www.w3.org/1999/xlink" x="0px" y="0px"
	 width="1024px" height="1024px" viewBox="0 0 1024 1024" enable-background="new 0 0 1024 1024" xml:space="preserve">
<g>
	<g>
		<path fill="#202020" d="M71.375,130.125C55.152,130.125,42,143.277,42,159.5s13.152,29.375,29.375,29.375
			s29.375-13.152,29.375-29.375S87.598,130.125,71.375,130.125z M247.625,365.125c-16.223,0-29.375,13.152-29.375,29.375
			s13.152,29.375,29.375,29.375S277,410.723,277,394.5S263.848,365.125,247.625,365.125z M952.625,365.125h-528.75
			c-16.223,0-29.375,13.152-29.375,29.375s13.152,29.375,29.375,29.375h528.75c16.223,0,29.375-13.152,29.375-29.375
			S968.848,365.125,952.625,365.125z M247.625,188.875h705c16.223,0,29.375-13.152,29.375-29.375s-13.152-29.375-29.375-29.375h-705
			c-16.223,0-29.375,13.152-29.375,29.375S231.402,188.875,247.625,188.875z M247.625,600.125
			c-16.223,0-29.375,13.152-29.375,29.375s13.152,29.375,29.375,29.375S277,645.723,277,629.5S263.848,600.125,247.625,600.125z
			 M952.625,600.125h-528.75c-16.223,0-29.375,13.152-29.375,29.375s13.152,29.375,29.375,29.375h528.75
			c16.223,0,29.375-13.152,29.375-29.375S968.848,600.125,952.625,600.125z M247.625,835.125c-16.223,0-29.375,13.152-29.375,29.375
			s13.152,29.375,29.375,29.375S277,880.723,277,864.5S263.848,835.125,247.625,835.125z M952.625,835.125h-528.75
			c-16.223,0-29.375,13.152-29.375,29.375s13.152,29.375,29.375,29.375h528.75c16.223,0,29.375-13.152,29.375-29.375
			S968.848,835.125,952.625,835.125z"/>
	</g>
</g>
</svg>
