<?xml version="1.0" encoding="UTF-8"?>
<svg width="480px" height="300px" viewBox="0 0 480 300" version="1.1" xmlns="http://www.w3.org/2000/svg" xmlns:xlink="http://www.w3.org/1999/xlink">
    <title>青空</title>
    <g id="页面-1" stroke="none" stroke-width="1" fill="none" fill-rule="evenodd">
        <g id="青空备份" transform="translate(-81.000000, -57.000000)">
            <g id="青空" transform="translate(81.000000, 57.000000)">
                <rect id="矩形" fill="#E8F2FF" x="0" y="0" width="480" height="300"></rect>
                <path d="M115,250 C181.27417,250 235,205.228475 235,150 C235,94.771525 181.27417,50 115,50" id="椭圆形" stroke="#D6D9DD"></path>
                <path d="M243,250 C309.27417,250 363,205.228475 363,150 C363,94.771525 309.27417,50 243,50" id="椭圆形备份" stroke="#D6D9DD" transform="translate(303.000000, 150.000000) scale(-1, 1) translate(-303.000000, -150.000000) "></path>
                <line x1="279" y1="149.5" x2="359" y2="149.5" id="直线备份" stroke="#D6D9DD" stroke-linecap="square"></line>
                <line x1="119" y1="149.5" x2="199" y2="149.5" id="直线备份-3" stroke="#D6D9DD" stroke-linecap="square"></line>
                <rect id="矩形" fill="#448AFF" x="199" y="130" width="80" height="40" rx="4"></rect>
                <text id="思维导图" font-family="SourceHanSansCN-Normal, Source Han Sans CN" font-size="14" font-weight="normal" letter-spacing="0.223999999" fill="#FFFFFF">
                    <tspan x="211.052" y="155">思维导图</tspan>
                </text>
                <rect id="矩形备份" stroke="#D6D9DD" fill="#FFFFFF" x="339.5" y="134.5" width="79" height="31" rx="4"></rect>
                <rect id="矩形备份-4" stroke="#D6D9DD" fill="#FFFFFF" x="59.5" y="134.5" width="79" height="31" rx="4"></rect>
                <rect id="矩形备份-2" stroke="#D6D9DD" fill="#FFFFFF" x="339.5" y="34.5" width="79" height="31" rx="4"></rect>
                <rect id="矩形备份-5" stroke="#D6D9DD" fill="#FFFFFF" x="59.5" y="34.5" width="79" height="31" rx="4"></rect>
                <rect id="矩形备份-3" stroke="#D6D9DD" fill="#FFFFFF" x="339.5" y="234.5" width="79" height="31" rx="4"></rect>
                <rect id="矩形备份-6" stroke="#D6D9DD" fill="#FFFFFF" x="59.5" y="234.5" width="79" height="31" rx="4"></rect>
                <text id="思维导图" font-family="SourceHanSansCN-Normal, Source Han Sans CN" font-size="14" font-weight="normal" letter-spacing="0.223999999" fill="#505F79">
                    <tspan x="350.052" y="155">思维导图</tspan>
                </text>
                <text id="思维导图" font-family="SourceHanSansCN-Normal, Source Han Sans CN" font-size="14" font-weight="normal" letter-spacing="0.223999999" fill="#505F79">
                    <tspan x="71.052" y="155">思维导图</tspan>
                </text>
                <text id="思维导图" font-family="SourceHanSansCN-Normal, Source Han Sans CN" font-size="14" font-weight="normal" letter-spacing="0.223999999" fill="#505F79">
                    <tspan x="350.052" y="55">思维导图</tspan>
                </text>
                <text id="思维导图" font-family="SourceHanSansCN-Normal, Source Han Sans CN" font-size="14" font-weight="normal" letter-spacing="0.223999999" fill="#505F79">
                    <tspan x="71.052" y="55">思维导图</tspan>
                </text>
                <text id="思维导图" font-family="SourceHanSansCN-Normal, Source Han Sans CN" font-size="14" font-weight="normal" letter-spacing="0.223999999" fill="#505F79">
                    <tspan x="350.052" y="255">思维导图</tspan>
                </text>
                <text id="思维导图" font-family="SourceHanSansCN-Normal, Source Han Sans CN" font-size="14" font-weight="normal" letter-spacing="0.223999999" fill="#505F79">
                    <tspan x="71.052" y="255">思维导图</tspan>
                </text>
            </g>
        </g>
    </g>
</svg>