<?xml version="1.0" encoding="UTF-8"?>
<svg width="640px" height="400px" viewBox="0 0 640 400" version="1.1" xmlns="http://www.w3.org/2000/svg" xmlns:xlink="http://www.w3.org/1999/xlink">
    <title>主题8</title>
    <g id="主题8" stroke="none" stroke-width="1" fill="none" fill-rule="evenodd">
        <rect id="bg" fill="#272F40" x="0" y="0" width="640" height="400"></rect>
        <path d="M196,307 C262.27417,307 316,262.228475 316,207 C316,151.771525 262.27417,107 196,107" id="椭圆形" stroke="#E6E9ED"></path>
        <path d="M324,307 C390.27417,307 444,262.228475 444,207 C444,151.771525 390.27417,107 324,107" id="椭圆形备份" stroke="#E6E9ED" transform="translate(384.000000, 207.000000) scale(-1, 1) translate(-384.000000, -207.000000) "></path>
        <line x1="360" y1="206.5" x2="440" y2="206.5" id="直线备份" stroke="#E6E9ED" stroke-linecap="square"></line>
        <line x1="200" y1="206.5" x2="280" y2="206.5" id="直线备份-3" stroke="#E6E9ED" stroke-linecap="square"></line>
        <path d="M592.557758,82 C560.603084,82 540.417165,82 532,82 C519.374253,82 516.528392,108 508.79311,108 C503.636255,108 500.705219,108 500,108" id="直线-3" stroke="#E6E9ED" stroke-linecap="square"></path>
        <path d="M592.557758,181 C560.603084,181 540.417165,181 532,181 C519.374253,181 516.528392,207 508.79311,207 C503.636255,207 500.705219,207 500,207" id="直线-3备份-2" stroke="#E6E9ED" stroke-linecap="square"></path>
        <path d="M592.557758,283 C560.603084,283 540.417165,283 532,283 C519.374253,283 516.528392,309 508.79311,309 C503.636255,309 500.705219,309 500,309" id="直线-3备份-4" stroke="#E6E9ED" stroke-linecap="square"></path>
        <path d="M592.557758,108 C560.603084,108 540.417165,108 532,108 C519.374253,108 516.528392,134 508.79311,134 C503.636255,134 500.705219,134 500,134" id="直线-3备份" stroke="#E6E9ED" stroke-linecap="square" transform="translate(546.278879, 121.000000) scale(1, -1) translate(-546.278879, -121.000000) "></path>
        <path d="M592.557758,207 C560.603084,207 540.417165,207 532,207 C519.374253,207 516.528392,233 508.79311,233 C503.636255,233 500.705219,233 500,233" id="直线-3备份-3" stroke="#E6E9ED" stroke-linecap="square" transform="translate(546.278879, 220.000000) scale(1, -1) translate(-546.278879, -220.000000) "></path>
        <path d="M592.557758,309 C560.603084,309 540.417165,309 532,309 C519.374253,309 516.528392,335 508.79311,335 C503.636255,335 500.705219,335 500,335" id="直线-3备份-5" stroke="#E6E9ED" stroke-linecap="square" transform="translate(546.278879, 322.000000) scale(1, -1) translate(-546.278879, -322.000000) "></path>
        <path d="M139.557758,83 C107.603084,83 87.4171646,83 79,83 C66.3742531,83 63.5283917,109 55.7931098,109 C50.6362551,109 47.7052185,109 47,109" id="直线-3" stroke="#E6E9ED" stroke-linecap="square" transform="translate(93.278879, 96.000000) scale(-1, 1) translate(-93.278879, -96.000000) "></path>
        <path d="M139.557758,182 C107.603084,182 87.4171646,182 79,182 C66.3742531,182 63.5283917,208 55.7931098,208 C50.6362551,208 47.7052185,208 47,208" id="直线-3备份-2" stroke="#E6E9ED" stroke-linecap="square" transform="translate(93.278879, 195.000000) scale(-1, 1) translate(-93.278879, -195.000000) "></path>
        <path d="M139.557758,284 C107.603084,284 87.4171646,284 79,284 C66.3742531,284 63.5283917,310 55.7931098,310 C50.6362551,310 47.7052185,310 47,310" id="直线-3备份-4" stroke="#E6E9ED" stroke-linecap="square" transform="translate(93.278879, 297.000000) scale(-1, 1) translate(-93.278879, -297.000000) "></path>
        <path d="M139.557758,109 C107.603084,109 87.4171646,109 79,109 C66.3742531,109 63.5283917,135 55.7931098,135 C50.6362551,135 47.7052185,135 47,135" id="直线-3备份" stroke="#E6E9ED" stroke-linecap="square" transform="translate(93.278879, 122.000000) scale(-1, -1) translate(-93.278879, -122.000000) "></path>
        <path d="M139.557758,208 C107.603084,208 87.4171646,208 79,208 C66.3742531,208 63.5283917,234 55.7931098,234 C50.6362551,234 47.7052185,234 47,234" id="直线-3备份-3" stroke="#E6E9ED" stroke-linecap="square" transform="translate(93.278879, 221.000000) scale(-1, -1) translate(-93.278879, -221.000000) "></path>
        <path d="M139.557758,310 C107.603084,310 87.4171646,310 79,310 C66.3742531,310 63.5283917,336 55.7931098,336 C50.6362551,336 47.7052185,336 47,336" id="直线-3备份-5" stroke="#E6E9ED" stroke-linecap="square" transform="translate(93.278879, 323.000000) scale(-1, -1) translate(-93.278879, -323.000000) "></path>
        <rect id="矩形" fill="#448AFF" x="280" y="187" width="80" height="40" rx="4"></rect>
        <text id="思维导图" font-family="SourceHanSansCN-Normal, Source Han Sans CN" font-size="14" font-weight="normal" letter-spacing="0.223999999" fill="#FFFFFF">
            <tspan x="292.052" y="212">思维导图</tspan>
        </text>
        <rect id="矩形备份" fill="#FFFFFF" x="420" y="191" width="80" height="32" rx="4"></rect>
        <rect id="矩形备份-4" fill="#FFFFFF" x="140" y="191" width="80" height="32" rx="4"></rect>
        <rect id="矩形备份-2" fill="#FFFFFF" x="420" y="91" width="80" height="32" rx="4"></rect>
        <rect id="矩形备份-5" fill="#FFFFFF" x="140" y="91" width="80" height="32" rx="4"></rect>
        <rect id="矩形备份-3" fill="#FFFFFF" x="420" y="291" width="80" height="32" rx="4"></rect>
        <rect id="矩形备份-6" fill="#FFFFFF" x="140" y="291" width="80" height="32" rx="4"></rect>
        <text id="思维导图" font-family="SourceHanSansCN-Normal, Source Han Sans CN" font-size="14" font-weight="normal" letter-spacing="0.223999999" fill="#172B4D">
            <tspan x="431.052" y="212">思维导图</tspan>
        </text>
        <text id="思维导图" font-family="SourceHanSansCN-Normal, Source Han Sans CN" font-size="14" font-weight="normal" letter-spacing="0.223999999" fill="#172B4D">
            <tspan x="152.052" y="212">思维导图</tspan>
        </text>
        <text id="思维导图" font-family="SourceHanSansCN-Normal, Source Han Sans CN" font-size="14" font-weight="normal" letter-spacing="0.223999999" fill="#172B4D">
            <tspan x="431.052" y="112">思维导图</tspan>
        </text>
        <text id="思维导图" font-family="SourceHanSansCN-Normal, Source Han Sans CN" font-size="14" font-weight="normal" letter-spacing="0.223999999" fill="#172B4D">
            <tspan x="152.052" y="112">思维导图</tspan>
        </text>
        <text id="思维导图" font-family="SourceHanSansCN-Normal, Source Han Sans CN" font-size="14" font-weight="normal" letter-spacing="0.223999999" fill="#172B4D">
            <tspan x="431.052" y="312">思维导图</tspan>
        </text>
        <text id="思维导图" font-family="SourceHanSansCN-Normal, Source Han Sans CN" font-size="14" font-weight="normal" letter-spacing="0.223999999" fill="#172B4D">
            <tspan x="152.052" y="312">思维导图</tspan>
        </text>
        <text id="思维导图" font-family="SourceHanSansCN-Normal, Source Han Sans CN" font-size="14" font-weight="normal" letter-spacing="0.223999999" fill="#FFFFFF">
            <tspan x="534.052" y="175">思维导图</tspan>
        </text>
        <text id="思维导图" font-family="SourceHanSansCN-Normal, Source Han Sans CN" font-size="14" font-weight="normal" letter-spacing="0.223999999" fill="#FFFFFF">
            <tspan x="534.052" y="277">思维导图</tspan>
        </text>
        <text id="思维导图" font-family="SourceHanSansCN-Normal, Source Han Sans CN" font-size="14" font-weight="normal" letter-spacing="0.223999999" fill="#FFFFFF">
            <tspan x="534.052" y="76">思维导图</tspan>
        </text>
        <text id="思维导图" font-family="SourceHanSansCN-Normal, Source Han Sans CN" font-size="14" font-weight="normal" letter-spacing="0.223999999" fill="#FFFFFF">
            <tspan x="534.052" y="128">思维导图</tspan>
        </text>
        <text id="思维导图" font-family="SourceHanSansCN-Normal, Source Han Sans CN" font-size="14" font-weight="normal" letter-spacing="0.223999999" fill="#FFFFFF">
            <tspan x="534.052" y="227">思维导图</tspan>
        </text>
        <text id="思维导图" font-family="SourceHanSansCN-Normal, Source Han Sans CN" font-size="14" font-weight="normal" letter-spacing="0.223999999" fill="#FFFFFF">
            <tspan x="534.052" y="329">思维导图</tspan>
        </text>
        <text id="思维导图" font-family="SourceHanSansCN-Normal, Source Han Sans CN" font-size="14" font-weight="normal" letter-spacing="0.223999999" fill="#FFFFFF">
            <tspan x="50.052" y="77">思维导图</tspan>
        </text>
        <text id="思维导图" font-family="SourceHanSansCN-Normal, Source Han Sans CN" font-size="14" font-weight="normal" letter-spacing="0.223999999" fill="#FFFFFF">
            <tspan x="50.052" y="176">思维导图</tspan>
        </text>
        <text id="思维导图" font-family="SourceHanSansCN-Normal, Source Han Sans CN" font-size="14" font-weight="normal" letter-spacing="0.223999999" fill="#FFFFFF">
            <tspan x="50.052" y="278">思维导图</tspan>
        </text>
        <text id="思维导图" font-family="SourceHanSansCN-Normal, Source Han Sans CN" font-size="14" font-weight="normal" letter-spacing="0.223999999" fill="#FFFFFF">
            <tspan x="50.052" y="129">思维导图</tspan>
        </text>
        <text id="思维导图" font-family="SourceHanSansCN-Normal, Source Han Sans CN" font-size="14" font-weight="normal" letter-spacing="0.223999999" fill="#FFFFFF">
            <tspan x="50.052" y="228">思维导图</tspan>
        </text>
        <text id="思维导图" font-family="SourceHanSansCN-Normal, Source Han Sans CN" font-size="14" font-weight="normal" letter-spacing="0.223999999" fill="#FFFFFF">
            <tspan x="50.052" y="330">思维导图</tspan>
        </text>
    </g>
</svg>